<svg width="20" height="21" viewBox="0 0 20 21" fill="none" xmlns="http://www.w3.org/2000/svg">
<g id="thumb_up_FILL0_wght200_GRAD0_opsz40 1">
<path id="Vector" d="M6.09707 8.33051H3.71473C3.35269 8.33051 3.04047 8.46212 2.78345 8.72212C2.52704 8.98149 2.39679 9.29186 2.39679 9.64847V16.3322C2.39679 16.6888 2.52705 16.9992 2.78345 17.2586C3.04047 17.5186 3.35269 17.6502 3.71473 17.6502H6.03887H6.13887H6.23887H14.5219C14.8254 17.6502 15.1214 17.5544 15.4085 17.3686C15.696 17.1825 15.9046 16.9494 16.0288 16.6684L16.0294 16.667L18.3357 11.2238L18.3357 11.2238L18.3366 11.2215C18.3706 11.1354 18.3906 11.0434 18.3973 10.9463C18.4035 10.8565 18.4066 10.771 18.4066 10.6898V9.64847C18.4066 9.30453 18.2691 8.9984 18.0039 8.73319C17.7387 8.46798 17.4326 8.33051 17.0887 8.33051H11.149L11.9423 4.41509C11.9424 4.41481 11.9425 4.41454 11.9425 4.41426C11.981 4.23825 11.9669 4.06784 11.8988 3.90612L11.8066 3.94492L11.8988 3.90611C11.8311 3.74546 11.725 3.62117 11.5802 3.53818L11.5802 3.53818L11.5795 3.53783C11.4315 3.45439 11.27 3.43026 11.0998 3.46411C10.9313 3.49762 10.7847 3.5795 10.6614 3.70672C10.6613 3.70686 10.6612 3.707 10.661 3.70714L6.09707 8.33051ZM6.03887 9.23563V16.745H3.71473C3.58877 16.745 3.49229 16.7055 3.41686 16.6301C3.34142 16.5547 3.30192 16.4582 3.30192 16.3322V9.64847C3.30192 9.53108 3.34051 9.43512 3.41813 9.35463L3.41813 9.35463C3.49383 9.27612 3.58991 9.23563 3.71473 9.23563H6.03887ZM10.9643 4.71375L10.0793 9.11592L10.0552 9.23563H10.1774H17.0887C17.2049 9.23563 17.3005 9.27517 17.3812 9.35593C17.462 9.43667 17.5015 9.53222 17.5015 9.64847V10.8664L15.1613 16.389C15.1613 16.3891 15.1612 16.3892 15.1612 16.3892C15.1049 16.5205 15.0246 16.6078 14.9222 16.6597C14.8059 16.7187 14.703 16.745 14.6122 16.745H6.94402V8.77718L10.9643 4.71375Z" fill="white" stroke="white" stroke-width="0.2"/>
</g>
</svg>
