<svg width="50" height="50" viewBox="0 0 50 50" fill="none" xmlns="http://www.w3.org/2000/svg">
<path d="M39.9386 36.0832L36.0553 32.1999H12.5031C11.8591 32.1999 11.2942 31.9571 10.8085 31.4713C10.3228 30.9857 10.08 30.4208 10.08 29.7768V9.42311C10.08 8.77911 10.3228 8.21426 10.8085 7.72857C11.2942 7.24286 11.8591 7 12.5031 7H39.5768C40.2356 7 40.8041 7.24286 41.2824 7.72857C41.7607 8.21426 41.9999 8.77911 41.9999 9.42311V35.2335C41.9999 35.77 41.7516 36.141 41.2552 36.3466C40.7587 36.5523 40.3199 36.4645 39.9386 36.0832ZM11.9861 9.42311V30.2938H36.863L40.0937 33.5246V9.42311C40.0937 9.27233 40.0453 9.14847 39.9483 9.05153C39.8514 8.9546 39.7276 8.90613 39.5768 8.90613H12.5031C12.3523 8.90613 12.2284 8.9546 12.1315 9.05153C12.0346 9.14847 11.9861 9.27233 11.9861 9.42311ZM11.9861 9.42311V33.5246V8.90613V9.42311Z" fill="black"/>
<path d="M22.4269 25.9H17.3331C17.0625 25.9 16.836 25.8106 16.6536 25.6318C16.4712 25.4531 16.38 25.2273 16.38 24.9546C16.38 24.6818 16.4712 24.4535 16.6536 24.2697C16.836 24.0858 17.0625 23.9939 17.3331 23.9939H22.4269C22.6975 23.9939 22.9239 24.0833 23.1063 24.262C23.2887 24.4408 23.3799 24.6665 23.3799 24.9393C23.3799 25.212 23.2887 25.4403 23.1063 25.6242C22.9239 25.808 22.6975 25.9 22.4269 25.9Z" fill="#405AE3"/>
<path d="M28.0269 20.5531H17.3331C17.0625 20.5531 16.836 20.4637 16.6536 20.2849C16.4712 20.1061 16.38 19.8804 16.38 19.6077C16.38 19.3349 16.4712 19.1066 16.6536 18.9228C16.836 18.7389 17.0625 18.6469 17.3331 18.6469H28.0269C28.2975 18.6469 28.5239 18.7363 28.7063 18.9151C28.8887 19.0939 28.9799 19.3196 28.9799 19.5924C28.9799 19.8651 28.8887 20.0934 28.7063 20.2773C28.5239 20.4611 28.2975 20.5531 28.0269 20.5531Z" fill="#405AE3"/>
<path d="M33.6269 15.2061H17.3331C17.0625 15.2061 16.836 15.1168 16.6536 14.938C16.4712 14.7592 16.38 14.5335 16.38 14.2608C16.38 13.988 16.4712 13.7597 16.6536 13.5758C16.836 13.392 17.0625 13.3 17.3331 13.3H33.6269C33.8975 13.3 34.1239 13.3894 34.3063 13.5682C34.4887 13.747 34.5799 13.9727 34.5799 14.2454C34.5799 14.5182 34.4887 14.7465 34.3063 14.9304C34.1239 15.1142 33.8975 15.2061 33.6269 15.2061Z" fill="#405AE3"/>
<path d="M35.259 17.3722L37.2279 19.341L38.1639 18.405C38.2947 18.2742 38.36 18.1062 38.36 17.9011C38.36 17.6958 38.2947 17.5195 38.1639 17.3722L37.2279 16.4361C37.0872 16.3054 36.9142 16.24 36.709 16.24C36.5038 16.24 36.3325 16.3054 36.195 16.4361L35.259 17.3722Z" fill="#405AE3"/>
<path d="M27.16 25.4711V27.44H29.1289L35.9641 20.6048L33.9953 18.6359L27.16 25.4711Z" fill="#405AE3"/>
<rect x="7" y="35.28" width="24.64" height="2.24" rx="1.12" fill="black"/>
<rect x="21.5601" y="39.76" width="20.16" height="2.24" rx="1.12" fill="black"/>
</svg>
