<svg width="24" height="24" viewBox="0 0 24 24" fill="none" xmlns="http://www.w3.org/2000/svg">
<g id="Done">
<path id="Vector" d="M8.33912 19.9874C8.46403 20.0374 8.59981 20.0617 8.74527 20.0617C8.89072 20.0617 9.02651 20.0374 9.15142 19.9874C9.27908 19.9363 9.40191 19.849 9.52045 19.7305L22.4358 6.81512C22.6554 6.59547 22.767 6.32978 22.767 6.02316C22.767 5.71655 22.6554 5.45085 22.4358 5.23121C22.2161 5.01156 21.9504 4.9 21.6438 4.9C21.3372 4.9 21.0715 5.01156 20.8519 5.23121L8.74527 17.3378L3.44857 12.0411C3.2298 11.8223 2.97001 11.7099 2.67338 11.7099C2.37676 11.7099 2.11697 11.8223 1.8982 12.0411C1.67772 12.2616 1.56699 12.5332 1.56699 12.8498C1.56699 13.1665 1.67772 13.4381 1.8982 13.6586L7.97008 19.7305C8.08863 19.849 8.21145 19.9363 8.33912 19.9874Z" fill="black" stroke="black" stroke-width="0.2"/>
</g>
</svg>
