<svg width="26" height="26" viewBox="0 0 26 26" fill="none" xmlns="http://www.w3.org/2000/svg">
<path d="M4.87495 22.1562H9.56245V14.3438H16.4375V22.1562H21.125V9.96875L13 3.875L4.87495 9.96875V22.1562ZM4.87495 24.0312C4.35933 24.0312 3.91792 23.8477 3.55074 23.4805C3.18355 23.1133 2.99995 22.6719 2.99995 22.1562V9.96875C2.99995 9.67188 3.06636 9.39062 3.19917 9.125C3.33199 8.85938 3.51558 8.64062 3.74995 8.46875L11.875 2.375C12.0478 2.25 12.2284 2.15625 12.417 2.09375C12.6055 2.03125 12.8019 2 13.0061 2C13.2103 2 13.4053 2.03125 13.591 2.09375C13.7767 2.15625 13.9547 2.25 14.125 2.375L22.25 8.46875C22.4843 8.64062 22.6679 8.85938 22.8007 9.125C22.9335 9.39062 23 9.67188 23 9.96875V22.1562C23 22.6719 22.8164 23.1133 22.4492 23.4805C22.082 23.8477 21.6406 24.0312 21.125 24.0312H14.5625V16.2188H11.4375V24.0312H4.87495Z" fill="#BBBBBB"/>
</svg>
