<svg width="18" height="13" viewBox="0 0 18 13" fill="none" xmlns="http://www.w3.org/2000/svg">
<path d="M6.07468 12.4411C6.17297 12.4804 6.27946 12.4994 6.39297 12.4994C6.50648 12.4994 6.61298 12.4804 6.71126 12.4411C6.8123 12.4007 6.9085 12.332 7.00042 12.24L16.8407 2.39978C17.0124 2.22806 17.1 2.0196 17.1 1.77955C17.1 1.5395 17.0124 1.33105 16.8407 1.15932C16.669 0.987597 16.4605 0.9 16.2204 0.9C15.9804 0.9 15.7719 0.987597 15.6002 1.15932L6.39297 10.3666L2.37423 6.34782C2.20338 6.17697 1.9995 6.0885 1.76677 6.0885C1.53404 6.0885 1.33017 6.17697 1.15932 6.34782C0.986768 6.52037 0.9 6.73343 0.9 6.98083C0.9 7.22823 0.986768 7.44129 1.15932 7.61384L5.78552 12.24C5.87744 12.332 5.97364 12.4007 6.07468 12.4411Z" fill="#8D9FB5" stroke="#8D9FB5" stroke-width="0.2"/>
</svg>
