<svg width="28" height="28" viewBox="0 0 28 28" fill="none" xmlns="http://www.w3.org/2000/svg">
<path d="M13.995 4.66659C13.7456 4.66659 13.5383 4.75044 13.373 4.91815C13.2077 5.08586 13.1251 5.29367 13.1251 5.54159V15.4874L10.2376 12.5999C10.0626 12.4249 9.85841 12.3423 9.62508 12.352C9.39175 12.3617 9.18758 12.4541 9.01258 12.6291C8.83758 12.8041 8.75008 13.0131 8.75008 13.2562C8.75008 13.4992 8.83758 13.7083 9.01258 13.8833L13.3876 18.2583C13.4848 18.3555 13.5833 18.4235 13.6831 18.4624C13.783 18.5013 13.8899 18.5208 14.004 18.5208C14.118 18.5208 14.2237 18.5013 14.3209 18.4624C14.4181 18.4235 14.5154 18.3555 14.6126 18.2583L19.0167 13.8541C19.1917 13.6791 19.2792 13.4749 19.2792 13.2416C19.2792 13.0083 19.1917 12.8041 19.0167 12.6291C18.8417 12.4541 18.6327 12.3666 18.3897 12.3666C18.1466 12.3666 17.9376 12.4541 17.7626 12.6291L14.8751 15.4874V5.54159C14.8751 5.29367 14.7907 5.08586 14.6221 4.91815C14.4534 4.75044 14.2443 4.66659 13.995 4.66659ZM5.53664 17.4124C5.28727 17.4124 5.07994 17.4963 4.91466 17.664C4.74939 17.8317 4.66675 18.0395 4.66675 18.2874V21.5833C4.66675 22.0499 4.84175 22.4583 5.19175 22.8083C5.54175 23.1583 5.95008 23.3333 6.41675 23.3333H21.5834C22.0501 23.3333 22.4584 23.1583 22.8084 22.8083C23.1584 22.4583 23.3334 22.0499 23.3334 21.5833V18.2874C23.3334 18.0395 23.2491 17.8317 23.0804 17.664C22.9117 17.4963 22.7027 17.4124 22.4533 17.4124C22.2039 17.4124 21.9966 17.4963 21.8313 17.664C21.6661 17.8317 21.5834 18.0395 21.5834 18.2874V21.5833H6.41675V18.2874C6.41675 18.0395 6.33241 17.8317 6.16373 17.664C5.99503 17.4963 5.786 17.4124 5.53664 17.4124Z" fill="#8D9FB5"/>
</svg>
