<svg width="18" height="18" viewBox="0 0 18 18" fill="none" xmlns="http://www.w3.org/2000/svg">
<path d="M4.15386 16C3.84053 16 3.56989 15.8904 3.34194 15.6712C3.11398 15.452 3 15.1918 3 14.8905V7.19526C3 6.89016 3.11398 6.62897 3.34194 6.4117C3.56989 6.19443 3.84053 6.0858 4.15386 6.0858H5.54617V4.321C5.54617 3.39933 5.88243 2.61541 6.55495 1.96925C7.22747 1.32308 8.04337 1 9.00264 1C9.9619 1 10.7769 1.32308 11.4477 1.96925C12.1185 2.61541 12.4538 3.39933 12.4538 4.321V6.0858H13.8461C14.1595 6.0858 14.4301 6.19443 14.6581 6.4117C14.886 6.62897 15 6.89016 15 7.19526V14.8905C15 15.1918 14.886 15.452 14.6581 15.6712C14.4301 15.8904 14.1595 16 13.8461 16H4.15386ZM9.00336 12.3461C9.37651 12.3461 9.69513 12.2209 9.95922 11.9705C10.2233 11.7201 10.3554 11.4188 10.3554 11.0666C10.3554 10.7263 10.2222 10.4201 9.95586 10.1479C9.68952 9.87574 9.36977 9.73964 8.99664 9.73964C8.62349 9.73964 8.30487 9.87574 8.04078 10.1479C7.77667 10.4201 7.64462 10.7295 7.64462 11.0762C7.64462 11.4228 7.77779 11.7211 8.04414 11.9711C8.31048 12.2211 8.63023 12.3461 9.00336 12.3461ZM6.45385 6.0858H11.5461V4.321C11.5461 3.64093 11.2989 3.06288 10.8043 2.58683C10.3098 2.11078 9.7093 1.87275 9.0028 1.87275C8.29632 1.87275 7.69487 2.11078 7.19845 2.58683C6.70205 3.06288 6.45385 3.64093 6.45385 4.321V6.0858Z" fill="#979797"/>
</svg>
