<svg width="26" height="26" viewBox="0 0 26 26" fill="none" xmlns="http://www.w3.org/2000/svg">
<path d="M14.7875 23.8334H11.2125C11.0139 23.8334 10.8379 23.7702 10.6844 23.6438C10.5309 23.5174 10.4361 23.3549 10.4 23.1563L9.96668 20.4209C9.62363 20.2945 9.26251 20.1229 8.88335 19.9063C8.50418 19.6896 8.17015 19.4639 7.88126 19.2292L5.36251 20.3938C5.1639 20.484 4.96529 20.4976 4.76668 20.4344C4.56807 20.3712 4.4146 20.2403 4.30626 20.0417L2.51876 16.8729C2.41043 16.6924 2.38335 16.5028 2.43751 16.3042C2.49168 16.1056 2.60001 15.9431 2.76251 15.8167L5.09168 14.1104C5.05557 13.9479 5.033 13.7629 5.02397 13.5552C5.01495 13.3476 5.01043 13.1625 5.01043 13C5.01043 12.8375 5.01495 12.6525 5.02397 12.4448C5.033 12.2372 5.05557 12.0521 5.09168 11.8896L2.76251 10.1834C2.60001 10.057 2.49168 9.89446 2.43751 9.69585C2.38335 9.49724 2.41043 9.30766 2.51876 9.1271L4.30626 5.95835C4.4146 5.75974 4.56807 5.62884 4.76668 5.56565C4.96529 5.50245 5.1639 5.51599 5.36251 5.60627L7.88126 6.77085C8.17015 6.53613 8.50418 6.31044 8.88335 6.09377C9.26251 5.8771 9.62363 5.7146 9.96668 5.60627L10.4 2.84377C10.4361 2.64516 10.5309 2.48266 10.6844 2.35627C10.8379 2.22988 11.0139 2.16669 11.2125 2.16669H14.7875C14.9861 2.16669 15.1622 2.22988 15.3156 2.35627C15.4691 2.48266 15.5639 2.64516 15.6 2.84377L16.0333 5.57919C16.3764 5.70558 16.742 5.87259 17.1302 6.08023C17.5184 6.28787 17.8479 6.51808 18.1188 6.77085L20.6375 5.60627C20.8361 5.51599 21.0347 5.50245 21.2333 5.56565C21.432 5.62884 21.5854 5.75974 21.6938 5.95835L23.4813 9.10002C23.5896 9.28058 23.6212 9.47467 23.5761 9.68231C23.5309 9.88995 23.4181 10.057 23.2375 10.1834L20.9083 11.8354C20.9445 12.016 20.967 12.2101 20.9761 12.4177C20.9851 12.6254 20.9896 12.8195 20.9896 13C20.9896 13.1806 20.9851 13.3702 20.9761 13.5688C20.967 13.7674 20.9445 13.957 20.9083 14.1375L23.2375 15.8167C23.4 15.9431 23.5083 16.1056 23.5625 16.3042C23.6167 16.5028 23.5896 16.6924 23.4813 16.8729L21.6938 20.0417C21.5854 20.2403 21.432 20.3712 21.2333 20.4344C21.0347 20.4976 20.8361 20.484 20.6375 20.3938L18.1188 19.2292C17.8299 19.4639 17.5004 19.6941 17.1302 19.9198C16.7601 20.1455 16.3945 20.3125 16.0333 20.4209L15.6 23.1563C15.5639 23.3549 15.4691 23.5174 15.3156 23.6438C15.1622 23.7702 14.9861 23.8334 14.7875 23.8334ZM13 16.5209C13.975 16.5209 14.8056 16.1778 15.4917 15.4917C16.1778 14.8056 16.5208 13.975 16.5208 13C16.5208 12.025 16.1778 11.1945 15.4917 10.5084C14.8056 9.82224 13.975 9.47919 13 9.47919C12.025 9.47919 11.1945 9.82224 10.5083 10.5084C9.82224 11.1945 9.47918 12.025 9.47918 13C9.47918 13.975 9.82224 14.8056 10.5083 15.4917C11.1945 16.1778 12.025 16.5209 13 16.5209ZM13 14.8959C12.4764 14.8959 12.0295 14.7108 11.6594 14.3406C11.2893 13.9705 11.1042 13.5236 11.1042 13C11.1042 12.4764 11.2893 12.0295 11.6594 11.6594C12.0295 11.2893 12.4764 11.1042 13 11.1042C13.5236 11.1042 13.9705 11.2893 14.3406 11.6594C14.7108 12.0295 14.8958 12.4764 14.8958 13C14.8958 13.5236 14.7108 13.9705 14.3406 14.3406C13.9705 14.7108 13.5236 14.8959 13 14.8959ZM11.8083 22.2084H14.1917L14.5708 19.175C15.1667 19.0306 15.7309 18.8049 16.2636 18.4979C16.7962 18.191 17.2792 17.8209 17.7125 17.3875L20.5833 18.6334L21.6667 16.6834L19.1208 14.8146C19.1931 14.5077 19.2518 14.2052 19.2969 13.9073C19.342 13.6094 19.3646 13.307 19.3646 13C19.3646 12.6931 19.3465 12.3906 19.3104 12.0927C19.2743 11.7948 19.2111 11.4924 19.1208 11.1854L21.6667 9.31669L20.5833 7.36669L17.7125 8.61252C17.2972 8.14308 16.8278 7.75037 16.3042 7.43439C15.7806 7.11842 15.2028 6.9153 14.5708 6.82502L14.1917 3.79169H11.8083L11.4292 6.82502C10.8153 6.95141 10.242 7.16808 9.70939 7.47502C9.17675 7.78196 8.70279 8.16113 8.28751 8.61252L5.41668 7.36669L4.33335 9.31669L6.87918 11.1854C6.80696 11.4924 6.74828 11.7948 6.70314 12.0927C6.658 12.3906 6.63543 12.6931 6.63543 13C6.63543 13.307 6.658 13.6094 6.70314 13.9073C6.74828 14.2052 6.80696 14.5077 6.87918 14.8146L4.33335 16.6834L5.41668 18.6334L8.28751 17.3875C8.72085 17.8209 9.20383 18.191 9.73647 18.4979C10.2691 18.8049 10.8333 19.0306 11.4292 19.175L11.8083 22.2084Z" fill="#BBBBBB"/>
</svg>
