<svg width="24" height="24" viewBox="0 0 24 24" fill="none" xmlns="http://www.w3.org/2000/svg">
<path d="M12.4857 16C12.3795 16 12.2803 15.9793 12.1879 15.9378C12.0955 15.8964 12.0057 15.8279 11.9184 15.7325L7.20749 10.5377C7.06164 10.3758 6.99268 10.1635 7.00061 9.90071C7.00854 9.63791 7.08543 9.42504 7.23128 9.26212C7.40887 9.06421 7.60214 8.97837 7.8111 9.00461C8.02006 9.03084 8.2054 9.12437 8.36713 9.2852L12.4863 13.8275L16.6055 9.2852C16.7532 9.12437 16.947 9.03522 17.1867 9.01772C17.4265 9.00023 17.6193 9.09029 17.7651 9.28791C17.9427 9.45054 18.0196 9.65928 17.9958 9.91414C17.972 10.169 17.8872 10.3856 17.7413 10.5639L13.0542 15.7325C12.9667 15.8279 12.8766 15.8964 12.7839 15.9378C12.6912 15.9793 12.5918 16 12.4857 16Z" fill="#979797"/>
</svg>
