<svg width="40" height="40" viewBox="0 0 40 40" fill="none" xmlns="http://www.w3.org/2000/svg">
<g id="ico_check">
<path id="&#237;&#140;&#168;&#236;&#138;&#164; 8480" d="M38.0003 7.7237L17.4623 28.2797L9.83028 20.6477L12.3683 18.1097L17.4623 23.1997L35.4623 5.1997L38.0003 7.7237ZM34.0223 16.7997C34.6839 19.7093 34.4248 22.7527 33.2807 25.5085C32.1366 28.2644 30.1641 30.5964 27.6363 32.182C25.1086 33.7675 22.1504 34.5281 19.1713 34.3584C16.1923 34.1888 13.3396 33.0973 11.0081 31.2351C8.67668 29.3728 6.98174 26.8319 6.1579 23.964C5.33405 21.0961 5.42206 18.043 6.40972 15.2273C7.39739 12.4116 9.23587 9.97253 11.6707 8.24767C14.1056 6.52282 17.0164 5.59747 20.0003 5.5997C22.7294 5.59732 25.4018 6.37823 27.7003 7.8497L30.3003 5.2577C27.2868 3.1321 23.688 1.99378 20.0003 1.9997C16.1611 1.98936 12.4186 3.20357 9.31672 5.46587C6.21484 7.72817 3.91521 10.9207 2.752 14.5794C1.58879 18.2382 1.62263 22.1726 2.84859 25.8108C4.07455 29.449 6.42875 32.6015 9.56907 34.8101C12.7094 37.0188 16.4722 38.1684 20.3107 38.0921C24.1491 38.0157 27.8632 36.7173 30.9132 34.3855C33.9632 32.0537 36.1902 28.8101 37.2705 25.126C38.3508 21.4419 38.2281 17.5093 36.9203 13.8997L34.0223 16.7997Z" fill="#4679FE"/>
</g>
</svg>
