<svg width="28" height="28" viewBox="0 0 28 28" fill="none" xmlns="http://www.w3.org/2000/svg">
<path d="M7.6125 24.5C7.14583 24.5 6.7375 24.325 6.3875 23.975C6.0375 23.625 5.8625 23.2167 5.8625 22.75V6.125H5.54167C5.29375 6.125 5.08594 6.04066 4.91823 5.87198C4.75052 5.70328 4.66667 5.49425 4.66667 5.2449C4.66667 4.99552 4.75052 4.78819 4.91823 4.62292C5.08594 4.45764 5.29375 4.375 5.54167 4.375H10.15C10.15 4.12222 10.2339 3.91319 10.4016 3.74792C10.5693 3.58264 10.7771 3.5 11.025 3.5H16.975C17.2229 3.5 17.4307 3.58385 17.5984 3.75156C17.7661 3.91927 17.85 4.12708 17.85 4.375H22.4583C22.7062 4.375 22.9141 4.45934 23.0818 4.62802C23.2495 4.79672 23.3333 5.00575 23.3333 5.2551C23.3333 5.50448 23.2495 5.71181 23.0818 5.87708C22.9141 6.04236 22.7062 6.125 22.4583 6.125H22.1375V22.75C22.1375 23.2167 21.9625 23.625 21.6125 23.975C21.2625 24.325 20.8542 24.5 20.3875 24.5H7.6125ZM7.6125 6.125V22.75H20.3875V6.125H7.6125ZM10.7042 19.3667C10.7042 19.6146 10.7885 19.8224 10.9572 19.9901C11.1259 20.1578 11.3349 20.2417 11.5843 20.2417C11.8336 20.2417 12.041 20.1578 12.2062 19.9901C12.3715 19.8224 12.4542 19.6146 12.4542 19.3667V9.47917C12.4542 9.23125 12.3698 9.02344 12.2011 8.85573C12.0324 8.68802 11.8234 8.60417 11.5741 8.60417C11.3247 8.60417 11.1174 8.68802 10.9521 8.85573C10.7868 9.02344 10.7042 9.23125 10.7042 9.47917V19.3667ZM15.5458 19.3667C15.5458 19.6146 15.6302 19.8224 15.7989 19.9901C15.9676 20.1578 16.1766 20.2417 16.4259 20.2417C16.6753 20.2417 16.8826 20.1578 17.0479 19.9901C17.2132 19.8224 17.2958 19.6146 17.2958 19.3667V9.47917C17.2958 9.23125 17.2115 9.02344 17.0428 8.85573C16.8741 8.68802 16.6651 8.60417 16.4157 8.60417C16.1664 8.60417 15.959 8.68802 15.7937 8.85573C15.6285 9.02344 15.5458 9.23125 15.5458 9.47917V19.3667Z" fill="white"/>
</svg>
