<svg width="40" height="40" viewBox="0 0 40 40" fill="none" xmlns="http://www.w3.org/2000/svg">
<g id="ico_fail">
<path id="&#235;&#185;&#188;&#234;&#184;&#176; 2" d="M19.9996 37.9998C17.1719 38.0047 14.3824 37.3433 11.858 36.0692C9.33357 34.7951 7.14496 32.9446 5.4693 30.6668C3.79365 28.3891 2.67829 25.748 2.21344 22.9588C1.74859 20.1696 1.9481 17.3102 2.7945 14.6121C3.64089 11.9141 5.11075 9.45344 7.08551 7.42951C9.06027 5.40559 11.4843 3.87519 14.1607 2.96272C16.8371 2.05024 19.691 1.78143 22.4908 2.17756C25.2906 2.57369 27.9577 3.62384 30.2759 5.24299L27.6275 7.80061C24.9227 6.11349 21.7337 5.37238 18.5621 5.69416C15.3905 6.01594 12.4159 7.38293 10.105 9.57893C7.79419 11.7749 6.27839 14.6759 5.79548 17.827C5.31256 20.978 5.88993 24.1999 7.43708 26.9871C8.98423 29.7744 11.4137 31.9696 14.3433 33.2264C17.273 34.4832 20.5367 34.7311 23.6226 33.9315C26.7086 33.1318 29.4416 31.3299 31.3922 28.8084C33.3427 26.287 34.4012 23.1887 34.4 20.0008C34.3942 18.955 34.2747 17.9125 34.0445 16.8924L36.9771 14.0604C37.9293 16.7725 38.2179 19.6739 37.8179 22.5203C37.4179 25.3668 36.3411 28.0761 34.6783 30.4207C33.0154 32.7653 30.8153 34.6772 28.2613 35.9959C25.7073 37.3147 22.874 38.0016 19.9996 37.9998Z" fill="#E23A15"/>
<path id="&#237;&#149;&#169;&#236;&#185;&#152;&#234;&#184;&#176; 37" d="M12 25.7419L17.844 19.877L12.244 14.259L14.494 12L20.094 17.618L25.502 12.191L27.7531 14.449L22.344 19.877L27.998 25.551L25.7469 27.809L20.093 22.135L14.25 28L12 25.7419Z" fill="#E23A15"/>
</g>
</svg>
