<svg width="24" height="24" viewBox="0 0 24 24" fill="none" xmlns="http://www.w3.org/2000/svg">
<path d="M20.35 4.78125H1.65V20.2188H10.175V22H1.65C1.21 22 0.825 21.8219 0.495 21.4656C0.165 21.1094 0 20.6938 0 20.2188V4.78125C0 4.30625 0.165 3.89063 0.495 3.53438C0.825 3.17813 1.21 3 1.65 3H20.35C20.79 3 21.175 3.17813 21.505 3.53438C21.835 3.89063 22 4.30625 22 4.78125V11.6094H20.35V4.78125ZM1.65 4.78125V20.2188V13.9844V14.1031V4.78125ZM11 11.1047L20.35 4.78125V6.53281L11.44 12.5594C11.3025 12.6583 11.1581 12.7078 11.0069 12.7078C10.8556 12.7078 10.7067 12.6583 10.56 12.5594L1.65 6.53281V4.78125L11 11.1047Z" fill="black"/>
<path d="M13.1612 22.5373C13.2904 22.6477 13.4516 22.7 13.6369 22.7H18.5669C19.7977 22.7 20.8616 22.3452 21.7535 21.6333C22.6474 20.9197 23.1 20.0321 23.1 18.9755C23.1 17.9189 22.6474 17.0314 21.7535 16.3178C20.8616 15.6058 19.7977 15.251 18.5669 15.251H13.22L14.7911 13.9087C14.9241 13.795 14.9981 13.6543 14.9981 13.4898C14.9981 13.3253 14.9241 13.1846 14.7911 13.0709C14.658 12.9572 14.5012 12.9 14.3248 12.9C14.1485 12.9 13.9916 12.9572 13.8586 13.0709L11.107 15.4219C11.0365 15.4822 10.9811 15.5475 10.9476 15.6188C10.9154 15.6876 10.9 15.7621 10.9 15.8408C10.9 15.9195 10.9154 15.994 10.9476 16.0628C10.9811 16.1342 11.0365 16.1994 11.107 16.2597L13.8586 18.6107C13.9916 18.7244 14.1485 18.7816 14.3248 18.7816C14.5012 18.7816 14.658 18.7244 14.7911 18.6107C14.9241 18.497 14.9981 18.3564 14.9981 18.1918C14.9981 18.0273 14.9241 17.8866 14.7911 17.773L13.22 16.4306H18.586C19.4574 16.4306 20.2026 16.6774 20.8267 17.1684C21.4484 17.6575 21.7535 18.2582 21.7535 18.9755C21.7535 19.6928 21.4484 20.2935 20.8267 20.7826C20.2026 21.2736 19.4574 21.5204 18.586 21.5204H13.6369C13.4516 21.5204 13.2904 21.5727 13.1612 21.6832C13.0308 21.7945 12.9637 21.9392 12.9637 22.1102C12.9637 22.2812 13.0308 22.4259 13.1612 22.5373Z" fill="black" stroke="black" stroke-width="0.2"/>
</svg>
