<svg width="24" height="24" viewBox="0 0 24 24" fill="none" xmlns="http://www.w3.org/2000/svg">
<path d="M1 22.0317V3.96829C1 3.61797 1.13904 3.34975 1.41713 3.16365C1.69522 2.97754 1.98876 2.95017 2.29775 3.08154L22.4438 12.0804C22.8146 12.2556 23 12.5621 23 13C23 13.4379 22.8146 13.7444 22.4438 13.9196L2.29775 22.9185C1.98876 23.0498 1.69522 23.0225 1.41713 22.8364C1.13904 22.6502 1 22.382 1 22.0317ZM2.85393 20.4553L19.6629 13L2.85393 5.44621V10.9638L10.3315 13L2.85393 14.9706V20.4553ZM2.85393 13V5.44621V20.4553V13Z" fill="black"/>
</svg>
