<svg width="24" height="24" viewBox="0 0 24 24" fill="none" xmlns="http://www.w3.org/2000/svg">
<path d="M21.7422 20.3825L16.8174 15.484C17.9748 14.0641 18.6701 12.2562 18.6701 10.2826C18.6701 5.71058 14.936 2 10.3351 2C5.73411 2 2 5.71058 2 10.2826C2 14.8545 5.73411 18.5651 10.3351 18.5651C12.2545 18.5651 14.0215 17.912 15.4314 16.8281L20.3753 21.7409C20.7229 22.0864 21.2802 22.0864 21.6279 21.7409L21.747 21.6226C22.0851 21.2818 22.0851 20.7233 21.7422 20.3825ZM3.9004 10.2873C3.9004 6.75655 6.77718 3.89789 10.3303 3.89789C13.8834 3.89789 16.7602 6.75655 16.7602 10.2873C16.7602 13.818 13.8834 16.6767 10.3303 16.6767C6.77718 16.6767 3.9004 13.8133 3.9004 10.2873Z" fill="black"/>
</svg>
