<svg width="24" height="24" viewBox="0 0 24 24" fill="none" xmlns="http://www.w3.org/2000/svg">
<path d="M2.9375 20C2.67188 20 2.44922 19.8957 2.26953 19.6871C2.08984 19.4785 2 19.2201 2 18.9117C2 18.6034 2.08984 18.347 2.26953 18.1426C2.44922 17.9383 2.67188 17.8361 2.9375 17.8361H13.125C13.3906 17.8361 13.6133 17.9404 13.793 18.1489C13.9727 18.3575 14.0625 18.616 14.0625 18.9243C14.0625 19.2327 13.9727 19.4891 13.793 19.6934C13.6133 19.8978 13.3906 20 13.125 20H2.9375ZM2.9375 13.2361C2.67188 13.2361 2.44922 13.1318 2.26953 12.9232C2.08984 12.7146 2 12.4561 2 12.1478C2 11.8394 2.08984 11.5831 2.26953 11.3787C2.44922 11.1743 2.67188 11.0721 2.9375 11.0721H21.0625C21.3281 11.0721 21.5508 11.1764 21.7305 11.385C21.9102 11.5936 22 11.8521 22 12.1604C22 12.4688 21.9102 12.7251 21.7305 12.9295C21.5508 13.1339 21.3281 13.2361 21.0625 13.2361H2.9375ZM2.9375 6.16393C2.67188 6.16393 2.44922 6.05965 2.26953 5.85107C2.08984 5.64246 2 5.38399 2 5.07566C2 4.7673 2.08984 4.51093 2.26953 4.30656C2.44922 4.10219 2.67188 4 2.9375 4H21.0625C21.3281 4 21.5508 4.10429 21.7305 4.31287C21.9102 4.52147 22 4.77994 22 5.08828C22 5.39664 21.9102 5.65301 21.7305 5.85738C21.5508 6.06175 21.3281 6.16393 21.0625 6.16393H2.9375Z" fill="black"/>
</svg>
