<svg width="30" height="31" viewBox="0 0 30 31" fill="none" xmlns="http://www.w3.org/2000/svg">
<path d="M15 23C12.9219 23 11.1523 22.2695 9.69141 20.8086C8.23047 19.3477 7.5 17.5781 7.5 15.5C7.5 13.4219 8.23047 11.6523 9.69141 10.1914C11.1523 8.73047 12.9219 8 15 8C16.3281 8 17.4922 8.26953 18.4922 8.80859C19.4922 9.34766 20.3594 10.0859 21.0938 11.0234V8.70312C21.0938 8.5 21.1602 8.33203 21.293 8.19922C21.4258 8.06641 21.5937 8 21.7969 8C22 8 22.168 8.06641 22.3008 8.19922C22.4336 8.33203 22.5 8.5 22.5 8.70312V13.25C22.5 13.4531 22.4336 13.6211 22.3008 13.7539C22.168 13.8867 22 13.9531 21.7969 13.9531H17.25C17.0469 13.9531 16.8789 13.8867 16.7461 13.7539C16.6133 13.6211 16.5469 13.4531 16.5469 13.25C16.5469 13.0469 16.6133 12.8789 16.7461 12.7461C16.8789 12.6133 17.0469 12.5469 17.25 12.5469H20.4844C19.8906 11.6094 19.1328 10.8516 18.2109 10.2734C17.2891 9.69531 16.2188 9.40625 15 9.40625C13.2969 9.40625 11.8555 9.99609 10.6758 11.1758C9.49609 12.3555 8.90625 13.7969 8.90625 15.5C8.90625 17.2031 9.49609 18.6445 10.6758 19.8242C11.8555 21.0039 13.2969 21.5938 15 21.5938C16.2188 21.5938 17.3359 21.2695 18.3516 20.6211C19.3672 19.9727 20.125 19.1016 20.625 18.0078C20.6875 17.8828 20.7891 17.7734 20.9297 17.6797C21.0703 17.5859 21.2109 17.5391 21.3516 17.5391C21.6172 17.5391 21.8086 17.625 21.9258 17.7969C22.043 17.9688 22.0547 18.1719 21.9609 18.4062C21.3828 19.7969 20.4648 20.9102 19.207 21.7461C17.9492 22.582 16.5469 23 15 23Z" fill="#8D9FB5"/>
</svg>
