<svg width="20" height="21" viewBox="0 0 20 21" fill="none" xmlns="http://www.w3.org/2000/svg">
<g id="thumb_up_FILL0_wght200_GRAD0_opsz40 1">
<path id="Vector" d="M6.09711 13.7686H3.71476C3.35273 13.7686 3.04051 13.637 2.78348 13.377C2.52708 13.1176 2.39683 12.8073 2.39683 12.4507V5.76689C2.39683 5.41028 2.52708 5.09992 2.78348 4.84056C3.04051 4.58056 3.35272 4.44895 3.71476 4.44895H6.03891H6.13891H6.23891H14.5219C14.8254 4.44895 15.1214 4.54472 15.4085 4.73052C15.696 4.91657 15.9046 5.14972 16.0288 5.43076L16.0294 5.43217L18.3357 10.8753L18.3357 10.8753L18.3367 10.8777C18.3706 10.9638 18.3906 11.0557 18.3973 11.1529C18.4035 11.2426 18.4067 11.3281 18.4067 11.4093V12.4507C18.4067 12.7946 18.2692 13.1007 18.004 13.3659C17.7388 13.6311 17.4326 13.7686 17.0887 13.7686H11.149L11.9424 17.684C11.9424 17.6843 11.9425 17.6846 11.9426 17.6849C11.981 17.8609 11.9669 18.0313 11.8988 18.193L11.8067 18.1542L11.8988 18.193C11.8312 18.3537 11.725 18.478 11.5802 18.5609L11.5802 18.5609L11.5796 18.5613C11.4315 18.6447 11.27 18.6689 11.0998 18.635C10.9313 18.6015 10.7847 18.5196 10.6615 18.3924C10.6613 18.3923 10.6612 18.3921 10.6611 18.392L6.09711 13.7686ZM6.03891 12.8635V5.35407H3.71476C3.5888 5.35407 3.49233 5.39358 3.41689 5.46901C3.34146 5.54445 3.30195 5.64093 3.30195 5.76689V12.4507C3.30195 12.568 3.34055 12.664 3.41816 12.7445L3.41817 12.7445C3.49387 12.823 3.58994 12.8635 3.71476 12.8635H6.03891ZM10.9644 17.3854L10.0793 12.9832L10.0553 12.8635H10.1774H17.0887C17.2049 12.8635 17.3005 12.824 17.3813 12.7432C17.462 12.6625 17.5015 12.5669 17.5015 12.4507V11.2327L15.1613 5.71013C15.1613 5.71005 15.1613 5.70996 15.1612 5.70988C15.1049 5.57864 15.0246 5.49133 14.9222 5.43941C14.806 5.38046 14.7031 5.35407 14.6122 5.35407H6.94406V13.3219L10.9644 17.3854Z" fill="white" stroke="white" stroke-width="0.2"/>
</g>
</svg>
