<svg width="28" height="28" viewBox="0 0 28 28" fill="none" xmlns="http://www.w3.org/2000/svg">
<g clip-path="url(#clip0_4144_1498)">
<path d="M23.3356 24.8172L21.252 20.4915C20.8036 19.5672 20.2239 18.8946 19.2231 19.3047L17.2489 20.0375C15.6684 20.7704 14.8809 20.0375 14.0879 18.9329L10.5332 10.8446C10.0848 9.92036 10.32 9.05083 11.3207 8.64067L14.0825 7.53598C15.0832 7.12036 14.9246 6.2563 14.4762 5.33208L12.1082 0.924266C11.6598 4.74446e-05 10.7411 -0.224171 9.74027 0.185985C7.73871 1.01177 6.08168 2.30786 5.00434 4.22739C3.69184 6.57348 4.34809 9.83833 4.61059 11.211C4.87309 12.5836 5.79184 14.9899 6.97855 17.4563C8.16527 19.9282 9.20434 21.8696 10.1395 22.9688C11.0692 24.068 13.3004 27.0758 16.0621 27.7485C18.3262 28.2954 20.7707 27.836 22.7723 27.0102C23.7786 26.6165 23.7786 25.7469 23.3356 24.8172Z" fill="white"/>
</g>
<defs>
<clipPath id="clip0_4144_1498">
<rect width="28" height="28" fill="white"/>
</clipPath>
</defs>
</svg>
