<svg width="28" height="28" viewBox="0 0 28 28" fill="none" xmlns="http://www.w3.org/2000/svg">
<g clip-path="url(#clip0_4144_1520)">
<path fill-rule="evenodd" clip-rule="evenodd" d="M2.88 0.880002C3.44207 0.317232 4.20462 0.000701803 5 1.59499e-06H17C17.1314 -0.000233099 17.2616 0.025435 17.3831 0.0755384C17.5045 0.125642 17.615 0.199198 17.708 0.292002L25.708 8.292C25.8008 8.38504 25.8744 8.49546 25.9245 8.61694C25.9746 8.73842 26.0002 8.86859 26 9V25C26 25.7957 25.6839 26.5587 25.1213 27.1213C24.5587 27.6839 23.7956 28 23 28H5C4.20435 28 3.44129 27.6839 2.87868 27.1213C2.31607 26.5587 2 25.7957 2 25V3C2 2.204 2.316 1.44 2.88 0.880002ZM9.91 7.9C10.1789 7.9 10.4453 7.84703 10.6937 7.74411C10.9422 7.64119 11.168 7.49033 11.3582 7.30016C11.5483 7.10998 11.6992 6.88421 11.8021 6.63574C11.905 6.38726 11.958 6.12095 11.958 5.852C11.958 5.58305 11.905 5.31674 11.8021 5.06827C11.6992 4.81979 11.5483 4.59402 11.3582 4.40385C11.168 4.21367 10.9422 4.06282 10.6937 3.9599C10.4453 3.85697 10.1789 3.804 9.91 3.804C9.36684 3.804 8.84592 4.01977 8.46185 4.40385C8.07777 4.78792 7.862 5.30884 7.862 5.852C7.862 6.39517 8.07777 6.91608 8.46185 7.30016C8.84592 7.68423 9.36684 7.9 9.91 7.9ZM5.752 17C5.752 16.31 6.31 15.75 7 15.75H21C21.3193 15.7676 21.6198 15.9066 21.8399 16.1387C22.0599 16.3708 22.1828 16.6783 22.1833 16.9981C22.1838 17.3179 22.0619 17.6258 21.8426 17.8586C21.6233 18.0914 21.3233 18.2314 21.004 18.25H7.004C6.6723 18.25 6.35415 18.1184 6.11941 17.884C5.88467 17.6496 5.75253 17.3317 5.752 17ZM5.752 23C5.752 22.31 6.31 21.75 7 21.75H15C15.3193 21.7676 15.6198 21.9066 15.8399 22.1387C16.0599 22.3708 16.1828 22.6783 16.1833 22.9981C16.1838 23.3179 16.0619 23.6258 15.8426 23.8586C15.6233 24.0914 15.3233 24.2314 15.004 24.25H7.004C6.6723 24.25 6.35415 24.1184 6.11941 23.884C5.88467 23.6496 5.75253 23.3317 5.752 23ZM9.912 9.268C8.512 9.268 7.234 9.794 6.268 10.66C5.694 11.174 6.142 12 6.912 12H12.908C13.68 12 14.128 11.174 13.554 10.66C12.5531 9.76165 11.2569 9.26577 9.912 9.268Z" fill="white"/>
</g>
<defs>
<clipPath id="clip0_4144_1520">
<rect width="28" height="28" fill="white"/>
</clipPath>
</defs>
</svg>
