<svg width="28" height="28" viewBox="0 0 28 28" fill="none" xmlns="http://www.w3.org/2000/svg">
<path d="M23.333 4.66699H4.66634C3.38301 4.66699 2.34467 5.71699 2.34467 7.00033L2.33301 21.0003C2.33301 22.2837 3.38301 23.3337 4.66634 23.3337H23.333C24.6163 23.3337 25.6663 22.2837 25.6663 21.0003V7.00033C25.6663 5.71699 24.6163 4.66699 23.333 4.66699ZM22.8663 9.62533L14.618 14.782C14.2447 15.0153 13.7547 15.0153 13.3813 14.782L5.13301 9.62533C5.01602 9.55965 4.91358 9.47093 4.83188 9.36452C4.75018 9.25811 4.69091 9.13623 4.65768 9.00626C4.62444 8.87628 4.61793 8.74092 4.63852 8.60835C4.65912 8.47578 4.7064 8.34877 4.7775 8.23501C4.84861 8.12125 4.94205 8.02309 5.05219 7.94649C5.16232 7.86988 5.28686 7.81642 5.41825 7.78934C5.54965 7.76226 5.68517 7.76212 5.81662 7.78893C5.94807 7.81574 6.07272 7.86895 6.18301 7.94533L13.9997 12.8337L21.8163 7.94533C21.9266 7.86895 22.0513 7.81574 22.1827 7.78893C22.3142 7.76212 22.4497 7.76226 22.5811 7.78934C22.7125 7.81642 22.837 7.86988 22.9472 7.94649C23.0573 8.02309 23.1507 8.12125 23.2218 8.23501C23.2929 8.34877 23.3402 8.47578 23.3608 8.60835C23.3814 8.74092 23.3749 8.87628 23.3417 9.00626C23.3084 9.13623 23.2492 9.25811 23.1675 9.36452C23.0858 9.47093 22.9833 9.55965 22.8663 9.62533Z" fill="white"/>
</svg>
