<svg width="28" height="28" viewBox="0 0 28 28" fill="none" xmlns="http://www.w3.org/2000/svg">
<path d="M3 23.2571V10.9143C3 10.48 3.09762 10.0686 3.29287 9.68C3.48812 9.29143 3.75717 8.97143 4.1 8.72L12.35 2.54857C12.8312 2.18286 13.3812 2 14 2C14.6187 2 15.1687 2.18286 15.65 2.54857L23.9 8.72C24.2437 8.97143 24.5132 9.29143 24.7085 9.68C24.9037 10.0686 25.0009 10.48 25 10.9143V23.2571C25 24.0114 24.7305 24.6574 24.1915 25.195C23.6525 25.7326 23.0053 26.0009 22.25 26H18.125C17.7354 26 17.4091 25.8683 17.146 25.605C16.8829 25.3417 16.7509 25.0162 16.75 24.6286V17.7714C16.75 17.3829 16.618 17.0574 16.354 16.795C16.09 16.5326 15.7637 16.4009 15.375 16.4H12.625C12.2354 16.4 11.9091 16.5317 11.646 16.795C11.3829 17.0583 11.2509 17.3838 11.25 17.7714V24.6286C11.25 25.0171 11.118 25.3431 10.854 25.6064C10.59 25.8697 10.2637 26.0009 9.875 26H5.75C4.99375 26 4.34658 25.7317 3.8085 25.195C3.27042 24.6583 3.00092 24.0123 3 23.2571Z" fill="white"/>
</svg>
