<svg width="104" height="30" viewBox="0 0 104 30" fill="none" xmlns="http://www.w3.org/2000/svg">
<path d="M21.8402 0.807617C21.0754 0.807824 20.3141 0.909667 19.5762 1.11047C19.3546 1.14001 19.133 1.18062 18.9114 1.23233L5.10229 4.50088C5.72086 4.36424 6.35239 4.2949 6.98586 4.29406C8.28222 4.293 9.56237 4.58223 10.7324 5.14053C11.9023 5.69883 12.9325 6.51203 13.7471 7.52043C14.5618 8.52884 15.1403 9.70687 15.4402 10.9681C15.7401 12.2292 15.7539 13.5416 15.4804 14.8088C15.4804 14.8088 15.4804 14.8383 15.4804 14.8531L14.1286 21.6709C13.7987 23.4643 14.1879 25.3156 15.2122 26.8244C16.2364 28.3331 17.8134 29.3781 19.602 29.7332C21.4083 30.0917 23.2829 29.718 24.8136 28.6943C26.3443 27.6706 27.4056 26.0808 27.7642 24.2746L30.2608 11.6732C30.2626 11.6449 30.2626 11.6165 30.2608 11.5883C30.4304 10.9094 30.516 10.2123 30.5156 9.51264C30.5181 8.37128 30.2955 7.24063 29.8608 6.18532C29.426 5.13001 28.7875 4.17072 27.9819 3.36229C27.1762 2.55386 26.2191 1.91212 25.1652 1.47377C24.1114 1.03543 22.9815 0.80907 21.8402 0.807617Z" fill="url(#paint0_linear_8199_20612)"/>
<path d="M7.34238 4.12653C6.70891 4.12737 6.07738 4.19672 5.45882 4.33336L8.07365 3.71289L5.34433 4.35921C3.55231 4.78334 2.00217 5.90197 1.03492 7.46902C0.0676784 9.03608 -0.23744 10.9232 0.186689 12.7152C0.610819 14.5072 1.72946 16.0574 3.29651 17.0246C4.86357 17.9919 6.75067 18.297 8.54269 17.8728L15.523 16.222L15.8295 14.6856C15.8295 14.6856 15.8295 14.656 15.8295 14.6412C16.103 13.3741 16.0893 12.0617 15.7894 10.8005C15.4894 9.53934 14.9109 8.36132 14.0962 7.35291C13.2816 6.3445 12.2515 5.5313 11.0815 4.973C9.9115 4.41471 8.63136 4.12548 7.335 4.12653H7.34238Z" fill="url(#paint1_linear_8199_20612)"/>
<path d="M83.3174 8.1527C83.7362 7.82465 84.2651 7.66998 84.7947 7.7206C85.0544 7.71821 85.3139 7.73799 85.5703 7.7797C85.8103 7.82402 86.091 7.89049 86.4013 7.97543L86.8223 8.09362V5.09839L86.5933 5.02082C86.2789 4.92136 85.9563 4.84967 85.6294 4.80661C85.2621 4.75798 84.8919 4.73454 84.5214 4.73643C82.9481 4.73643 81.7145 5.14641 80.854 5.95893C79.9935 6.77144 79.5503 7.96437 79.5503 9.48968V11.2329H76.3704V14.1616H79.5503V25.6108H82.8742V14.1616H86.8112V11.2329H82.8705V9.57093C82.8466 9.31667 82.8738 9.0602 82.9505 8.81663C83.0273 8.57306 83.152 8.3473 83.3174 8.1527Z" fill="#980ED8"/>
<path d="M91.9192 11.2334H88.5583V25.6223H91.9192V11.2334Z" fill="#980ED8"/>
<path d="M90.3359 5.93078C90.0641 5.92187 89.7933 5.96763 89.5396 6.06533C89.2858 6.16303 89.0542 6.31067 88.8586 6.49953C88.6701 6.68139 88.5213 6.90028 88.4215 7.14245C88.3217 7.38461 88.2731 7.6448 88.2788 7.90666C88.2771 8.16742 88.3275 8.4259 88.4271 8.66691C88.5266 8.90792 88.6733 9.12658 88.8586 9.3101C89.037 9.50127 89.2533 9.65322 89.4937 9.75622C89.734 9.85923 89.9932 9.91105 90.2547 9.9084C90.5336 9.90643 90.8091 9.8463 91.0634 9.73183C91.3178 9.61737 91.5455 9.45108 91.732 9.24362C92.0684 8.88018 92.2534 8.40194 92.249 7.90666C92.2549 7.64356 92.2057 7.38212 92.1046 7.13916C92.0035 6.89619 91.8526 6.67705 91.6618 6.49583C91.3078 6.1457 90.8337 5.94365 90.3359 5.93078Z" fill="#980ED8"/>
<path d="M104 14.1629V11.2342H99.9562V7.72559H96.6322V11.2342H93.7219V14.1629H96.6322V21.8929C96.6322 23.1745 97.0237 24.168 97.7956 24.8475C98.5675 25.5271 99.6422 25.8595 101.064 25.8595C101.516 25.8577 101.968 25.8256 102.416 25.7635C102.864 25.7088 103.306 25.6086 103.734 25.4643L103.956 25.3868V22.4322L103.524 22.5688C103.224 22.6653 102.918 22.743 102.608 22.8015C102.295 22.8564 101.977 22.8823 101.659 22.8791C101.188 22.9216 100.717 22.7903 100.337 22.5097C100.194 22.3356 100.089 22.1348 100.025 21.9191C99.9618 21.7035 99.9421 21.4774 99.9672 21.254V14.1629H104Z" fill="#980ED8"/>
<path d="M44.2215 7.72559H40.8976V11.2342H37.9873V14.1629H40.8976V21.8929C40.8976 23.1745 41.2891 24.168 42.061 24.8475C42.8329 25.5271 43.9076 25.8595 45.3258 25.8595C45.778 25.8578 46.2296 25.8257 46.6776 25.7635C47.1273 25.7089 47.5703 25.6087 47.9997 25.4643L48.2213 25.3868V22.4322L47.7892 22.5688C47.4889 22.6649 47.183 22.7426 46.8733 22.8015C46.5587 22.8564 46.2397 22.8823 45.9204 22.8791C45.4495 22.9206 44.9795 22.7893 44.5982 22.5097C44.4571 22.335 44.3518 22.1342 44.2884 21.9187C44.225 21.7032 44.2048 21.4773 44.2289 21.254V14.1629H48.273V11.2342H44.2215V7.72559Z" fill="#980ED8"/>
<path d="M50.3223 18.2765V25.5928H53.6462V19.0151C53.6462 17.1943 54.3184 14.7273 57.1289 14.7273H60.0614V11.4033H56.7485C53.0294 11.4033 50.3223 13.8076 50.3223 18.2765Z" fill="#980ED8"/>
<path d="M68.1823 11.0186C66.7068 11.0186 65.2644 11.4561 64.0375 12.2759C62.8107 13.0956 61.8545 14.2608 61.2898 15.624C60.7252 16.9872 60.5774 18.4872 60.8653 19.9344C61.1531 21.3816 61.8637 22.7109 62.907 23.7542C63.9504 24.7976 65.2797 25.5081 66.7269 25.796C68.174 26.0839 69.6741 25.9361 71.0373 25.3714C72.4005 24.8068 73.5657 23.8506 74.3854 22.6237C75.2052 21.3969 75.6427 19.9545 75.6427 18.479C75.6427 16.5003 74.8567 14.6027 73.4576 13.2037C72.0585 11.8046 70.1609 11.0186 68.1823 11.0186ZM68.1823 22.9921C67.2899 22.9914 66.4177 22.7261 65.676 22.2297C64.9342 21.7334 64.3564 21.0283 64.0153 20.2035C63.6743 19.3788 63.5855 18.4714 63.76 17.5962C63.9346 16.721 64.3647 15.9172 64.996 15.2864C65.6274 14.6556 66.4315 14.2261 67.3069 14.0522C68.1823 13.8784 69.0895 13.968 69.914 14.3097C70.7384 14.6514 71.4431 15.2298 71.9388 15.972C72.4346 16.7141 72.6992 17.5865 72.6992 18.479C72.6982 19.6763 72.2219 20.8242 71.3749 21.6705C70.528 22.5168 69.3796 22.9921 68.1823 22.9921Z" fill="#980ED8"/>
<defs>
<linearGradient id="paint0_linear_8199_20612" x1="15.7167" y1="28.9503" x2="18.158" y2="3.64035" gradientUnits="userSpaceOnUse">
<stop stop-color="#FF0094"/>
<stop offset="1" stop-color="#7D1DDE"/>
</linearGradient>
<linearGradient id="paint1_linear_8199_20612" x1="0.000179595" y1="10.8963" x2="16.0289" y2="10.8963" gradientUnits="userSpaceOnUse">
<stop stop-color="#00F4D3"/>
<stop offset="0.28" stop-color="#02C4C3"/>
<stop offset="0.5" stop-color="#0297C7"/>
<stop offset="0.68" stop-color="#0277CB"/>
<stop offset="0.87" stop-color="#0059B5"/>
<stop offset="1" stop-color="#01397E"/>
</linearGradient>
</defs>
</svg>
