<svg width="50" height="50" viewBox="0 0 50 50" fill="none" xmlns="http://www.w3.org/2000/svg">
<circle cx="23.6137" cy="30.7046" r="12.2954" stroke="#405AE3" stroke-width="2"/>
<path d="M23.5 16C26.4615 16 28.7857 13.4878 28.7857 10.5C28.7857 7.51222 26.4615 5 23.5 5C20.5385 5 18.2143 7.51222 18.2143 10.5C18.2143 13.4878 20.5385 16 23.5 16ZM17.5 25H29.5C30.7819 25 32 24.0432 32 22.65V21.3C32 18.4153 29.4349 16.25 26.5 16.25C26.1858 16.25 25.9146 16.3122 25.6888 16.3788C25.5814 16.4105 25.4239 16.4636 25.2872 16.5097C25.2059 16.5371 25.132 16.5621 25.0805 16.5785C24.7159 16.6947 24.2503 16.8125 23.5 16.8125C22.7211 16.8125 22.2675 16.694 21.922 16.5809C21.8731 16.5649 21.8172 16.5449 21.7551 16.5227C21.4484 16.4131 20.992 16.25 20.5 16.25C17.5651 16.25 15 18.4153 15 21.3V22.65C15 24.0432 16.2181 25 17.5 25Z" fill="black" stroke="#E5EDF2" stroke-width="2"/>
<path d="M21.4848 32.4516C20.8357 31.8025 20.5042 31.0347 20.4904 30.1485C20.495 29.741 20.5951 29.3623 20.7908 29.0124C20.9887 28.6625 21.2546 28.384 21.5884 28.1768C21.9245 27.9673 22.2905 27.8625 22.6865 27.8625C23.0318 27.8649 23.3518 27.9385 23.6464 28.0835C23.9411 28.2286 24.1909 28.43 24.3957 28.6878C24.6029 28.43 24.8538 28.2286 25.1485 28.0835C25.4455 27.9385 25.7666 27.8649 26.1119 27.8625C26.5079 27.8625 26.8727 27.9673 27.2065 28.1768C27.5403 28.384 27.805 28.6625 28.0007 29.0124C28.1987 29.3623 28.2988 29.741 28.3011 30.1485C28.2942 31.0324 27.965 31.8002 27.3136 32.4516L24.3957 35.366L21.4848 32.4516Z" fill="#405AE3"/>
<path d="M13.2045 36.1795C15.724 36.1795 17.75 34.1103 17.75 31.5898C17.75 29.0692 15.724 27 13.2045 27C10.685 27 8.65909 29.0692 8.65909 31.5898C8.65909 34.1103 10.685 36.1795 13.2045 36.1795ZM8.24091 43.3591H18.1682C19.2706 43.3591 20.4091 42.5564 20.4091 41.2821V40.2052C20.4091 37.7409 18.1561 35.9744 15.6863 35.9744C15.2709 35.9744 14.8574 36.1135 14.6014 36.1996C14.5509 36.2166 14.5065 36.2315 14.4695 36.2429C14.1791 36.3322 13.8084 36.4231 13.2045 36.4231C12.5768 36.4231 12.2162 36.3315 11.9428 36.2452C11.9071 36.2339 11.8646 36.2192 11.8162 36.2025C11.5656 36.1157 11.1573 35.9744 10.7227 35.9744C8.25295 35.9744 6 37.7409 6 40.2052V41.2821C6 42.5564 7.13843 43.3591 8.24091 43.3591Z" fill="black" stroke="#E5EDF2" stroke-width="2"/>
<path d="M36.2045 36.1795C38.724 36.1795 40.75 34.1103 40.75 31.5898C40.75 29.0692 38.724 27 36.2045 27C33.685 27 31.6591 29.0692 31.6591 31.5898C31.6591 34.1103 33.685 36.1795 36.2045 36.1795ZM31.2409 43.3591H41.1682C42.2706 43.3591 43.4091 42.5564 43.4091 41.2821V40.2052C43.4091 37.7409 41.1561 35.9744 38.6863 35.9744C38.2709 35.9744 37.8574 36.1135 37.6014 36.1996C37.5509 36.2166 37.5065 36.2315 37.4695 36.2429C37.1791 36.3322 36.8084 36.4231 36.2045 36.4231C35.5768 36.4231 35.2162 36.3315 34.9428 36.2452C34.9071 36.2339 34.8646 36.2192 34.8162 36.2025C34.5656 36.1157 34.1573 35.9744 33.7227 35.9744C31.253 35.9744 29 37.7409 29 40.2052V41.2821C29 42.5564 30.1384 43.3591 31.2409 43.3591Z" fill="black" stroke="#E5EDF2" stroke-width="2"/>
</svg>
