<svg width="24" height="24" viewBox="0 0 24 24" fill="none" xmlns="http://www.w3.org/2000/svg">
<path d="M21.1304 5H2.86957C2.3913 5 2 4.55 2 4C2 3.45 2.3913 3 2.86957 3H21.1304C21.6087 3 22 3.45 22 4C22 4.555 21.613 5 21.1304 5Z" fill="black"/>
<path d="M21.1304 12H2.86957C2.3913 12 2 11.55 2 11C2 10.45 2.3913 10 2.86957 10H21.1304C21.6087 10 22 10.45 22 11C22 11.555 21.613 12 21.1304 12Z" fill="black"/>
<path d="M21.1304 19H2.86957C2.3913 19 2 18.55 2 18C2 17.45 2.3913 17 2.86957 17H21.1304C21.6087 17 22 17.45 22 18C22 18.555 21.613 19 21.1304 19Z" fill="black"/>
</svg>
