<svg width="24" height="24" viewBox="0 0 24 24" fill="none" xmlns="http://www.w3.org/2000/svg">
<path d="M12 12.9655L7.17241 17.7931C7.03448 17.931 6.87356 18 6.68966 18C6.50575 18 6.34483 17.931 6.2069 17.7931C6.06897 17.6552 6 17.4943 6 17.3103C6 17.1264 6.06897 16.9655 6.2069 16.8276L11.0345 12L6.2069 7.17241C6.06897 7.03448 6 6.87356 6 6.68966C6 6.50575 6.06897 6.34483 6.2069 6.2069C6.34483 6.06897 6.50575 6 6.68966 6C6.87356 6 7.03448 6.06897 7.17241 6.2069L12 11.0345L16.8276 6.2069C16.9655 6.06897 17.1264 6 17.3103 6C17.4943 6 17.6552 6.06897 17.7931 6.2069C17.931 6.34483 18 6.50575 18 6.68966C18 6.87356 17.931 7.03448 17.7931 7.17241L12.9655 12L17.7931 16.8276C17.931 16.9655 18 17.1264 18 17.3103C18 17.4943 17.931 17.6552 17.7931 17.7931C17.6552 17.931 17.4943 18 17.3103 18C17.1264 18 16.9655 17.931 16.8276 17.7931L12 12.9655Z" fill="#979797"/>
</svg>
