<svg width="24" height="24" viewBox="0 0 24 24" fill="none" xmlns="http://www.w3.org/2000/svg">
<path d="M3.15939 12.6177L3.15945 12.6177L10.3496 19.8779C10.4857 20.0229 10.6502 20.1 10.8395 20.1C11.0288 20.1 11.1962 20.0228 11.3386 19.8789L11.3386 19.8789C11.4806 19.7354 11.5569 19.5684 11.5569 19.3809C11.5569 19.1977 11.4927 19.0387 11.3654 18.9099L5.24796 12.7139H19.3929C19.5882 12.7139 19.7574 12.6468 19.8941 12.5126C20.0324 12.3768 20.1 12.2032 20.1 12C20.1 11.7968 20.0324 11.6232 19.8941 11.4874C19.7574 11.3532 19.5882 11.2861 19.3929 11.2861H5.24824L11.3386 5.12753C11.481 4.98352 11.5569 4.81474 11.5569 4.62433C11.5569 4.43435 11.4814 4.26591 11.3396 4.12212C11.2036 3.97713 11.039 3.9 10.8497 3.9C10.6648 3.9 10.5052 3.9648 10.3773 4.09407L3.15945 11.3823L3.15939 11.3823C3.07012 11.4726 3.00273 11.5682 2.96103 11.6695L2.96103 11.6695C2.91969 11.77 2.9 11.8807 2.9 12C2.9 12.1193 2.91969 12.23 2.96103 12.3305L2.96103 12.3305C3.00273 12.4318 3.07012 12.5274 3.15939 12.6177Z" fill="black" stroke="black" stroke-width="0.2"/>
</svg>
