<svg width="18" height="18" viewBox="0 0 18 18" fill="none" xmlns="http://www.w3.org/2000/svg">
<path d="M3.22247 14.386C2.39258 13.5561 1.96939 12.5624 1.95289 11.4048C1.93638 10.2473 2.34181 9.25487 3.16916 8.42752L8.90508 2.6916C9.49169 2.10499 10.199 1.81301 11.0269 1.81566C11.8549 1.8183 12.5619 2.11265 13.1479 2.69871C13.7428 3.29361 14.0399 4.00328 14.039 4.82773C14.0382 5.65218 13.74 6.36214 13.1445 6.95759L7.90495 12.1972C7.55428 12.5479 7.13636 12.7254 6.65119 12.7298C6.16601 12.7342 5.74756 12.5606 5.39583 12.2089C5.04411 11.8571 4.87929 11.4309 4.90139 10.9302C4.92349 10.4294 5.11535 9.99824 5.47697 9.63662L10.39 4.72358C10.4723 4.64124 10.5724 4.60007 10.69 4.60006C10.8077 4.60007 10.9077 4.64124 10.9901 4.72358C11.0714 4.80486 11.1128 4.90513 11.1144 5.02441C11.116 5.14369 11.0756 5.24449 10.9933 5.32683L6.04045 10.2796C5.85048 10.4696 5.75081 10.6939 5.74143 10.9524C5.73204 11.211 5.8175 11.4304 5.99782 11.6107C6.17814 11.791 6.39526 11.8786 6.64917 11.8734C6.90307 11.8682 7.12058 11.7751 7.3017 11.5939L12.5546 6.34108C12.9788 5.91682 13.1887 5.4108 13.1843 4.82301C13.1799 4.23523 12.9656 3.72921 12.5413 3.30494C12.117 2.88068 11.611 2.66634 11.0232 2.66192C10.4354 2.6575 9.92942 2.86742 9.50516 3.29169L3.74381 9.05303C3.09157 9.70528 2.77635 10.4919 2.79815 11.4128C2.81996 12.3337 3.1612 13.1245 3.82188 13.7852C4.49139 14.4547 5.28664 14.7962 6.20762 14.8096C7.1286 14.8231 7.91948 14.4994 8.58026 13.8386L14.0427 8.37622C14.125 8.29389 14.225 8.25272 14.3427 8.25271C14.4604 8.25272 14.5602 8.29367 14.6421 8.37556C14.724 8.45745 14.7657 8.558 14.7672 8.67719C14.7687 8.79638 14.7282 8.89714 14.6459 8.97948L9.19677 14.4286C8.36942 15.256 7.37434 15.6632 6.21153 15.6502C5.04872 15.6373 4.05237 15.2158 3.22247 14.386Z" fill="#979797"/>
</svg>
