<svg width="26" height="26" viewBox="0 0 26 26" fill="none" xmlns="http://www.w3.org/2000/svg">
<path d="M17.4688 17.1438C17.3063 16.9812 17.225 16.7849 17.225 16.5547C17.225 16.3245 17.3063 16.1326 17.4688 15.9792L19.6354 13.8125H10.9688C10.7385 13.8125 10.5456 13.7342 10.3898 13.5776C10.2341 13.4209 10.1563 13.2268 10.1563 12.9953C10.1563 12.7637 10.2341 12.5712 10.3898 12.4177C10.5456 12.2642 10.7385 12.1875 10.9688 12.1875H19.5813L17.3875 9.99375C17.2431 9.84931 17.1708 9.66471 17.1708 9.43998C17.1708 9.21522 17.254 9.02112 17.4204 8.85769C17.5729 8.69423 17.7635 8.6125 17.9923 8.6125C18.221 8.6125 18.4167 8.69375 18.5792 8.85625L22.1813 12.4583C22.2715 12.5486 22.3347 12.6401 22.3708 12.7328C22.4069 12.8255 22.425 12.9248 22.425 13.0307C22.425 13.1366 22.4069 13.2347 22.3708 13.325C22.3347 13.4153 22.2715 13.5056 22.1813 13.5958L18.6063 17.1708C18.4618 17.3153 18.2767 17.3875 18.051 17.3875C17.8253 17.3875 17.6313 17.3063 17.4688 17.1438ZM4.875 22.75C4.44167 22.75 4.0625 22.5875 3.7375 22.2625C3.4125 21.9375 3.25 21.5583 3.25 21.125V4.875C3.25 4.44167 3.4125 4.0625 3.7375 3.7375C4.0625 3.4125 4.44167 3.25 4.875 3.25H11.9438C12.174 3.25 12.3669 3.32832 12.5227 3.48495C12.6784 3.6416 12.7563 3.8357 12.7563 4.06724C12.7563 4.2988 12.6784 4.49132 12.5227 4.64479C12.3669 4.79826 12.174 4.875 11.9438 4.875H4.875V21.125H11.9438C12.174 21.125 12.3669 21.2033 12.5227 21.3599C12.6784 21.5166 12.7563 21.7107 12.7563 21.9422C12.7563 22.1738 12.6784 22.3663 12.5227 22.5198C12.3669 22.6733 12.174 22.75 11.9438 22.75H4.875Z" fill="#BBBBBB"/>
</svg>
