<svg width="18" height="18" viewBox="0 0 18 18" fill="none" xmlns="http://www.w3.org/2000/svg">
<path d="M8.99983 11.3781C8.9162 11.3781 8.83799 11.3633 8.76517 11.3337C8.69236 11.304 8.62156 11.2551 8.55277 11.1869L4.84027 7.47442C4.72534 7.35873 4.67099 7.20699 4.67724 7.01919C4.68349 6.83137 4.74409 6.67925 4.85902 6.56281C4.99897 6.42137 5.15129 6.36003 5.31596 6.37878C5.48064 6.39753 5.6267 6.46437 5.75415 6.57931L9.00033 9.82552L12.2465 6.57931C12.363 6.46437 12.5157 6.40066 12.7046 6.38816C12.8935 6.37566 13.0454 6.44002 13.1604 6.58124C13.3003 6.69747 13.3609 6.84665 13.3422 7.02879C13.3234 7.21094 13.2566 7.36573 13.1416 7.49317L9.4479 11.1869C9.37892 11.2551 9.30791 11.304 9.23486 11.3337C9.16181 11.3633 9.08347 11.3781 8.99983 11.3781Z" fill="#494949"/>
</svg>
