<svg width="24" height="24" viewBox="0 0 24 24" fill="none" xmlns="http://www.w3.org/2000/svg">
<path d="M7.20937 20C6.85938 20 6.55313 19.8667 6.29062 19.6C6.02812 19.3333 5.89687 19.0222 5.89687 18.6667V6H5.65625C5.47031 6 5.31445 5.93574 5.18867 5.80722C5.06289 5.67869 5 5.51943 5 5.32944C5 5.13944 5.06289 4.98148 5.18867 4.85556C5.31445 4.72963 5.47031 4.66667 5.65625 4.66667H9.1125C9.1125 4.47407 9.17539 4.31481 9.30117 4.18889C9.42695 4.06296 9.58281 4 9.76875 4H14.2312C14.4172 4 14.573 4.06389 14.6988 4.19167C14.8246 4.31944 14.8875 4.47778 14.8875 4.66667H18.3438C18.5297 4.66667 18.6855 4.73093 18.8113 4.85944C18.9371 4.98798 19 5.14724 19 5.33722C19 5.52722 18.9371 5.68519 18.8113 5.81111C18.6855 5.93704 18.5297 6 18.3438 6H18.1031V18.6667C18.1031 19.0222 17.9719 19.3333 17.7094 19.6C17.4469 19.8667 17.1406 20 16.7906 20H7.20937ZM7.20937 6V18.6667H16.7906V6H7.20937ZM9.52812 16.0889C9.52812 16.2778 9.59138 16.4361 9.71789 16.5639C9.84442 16.6917 10.0012 16.7556 10.1882 16.7556C10.3752 16.7556 10.5307 16.6917 10.6547 16.5639C10.7786 16.4361 10.8406 16.2778 10.8406 16.0889V8.55556C10.8406 8.36667 10.7774 8.20833 10.6509 8.08056C10.5243 7.95278 10.3676 7.88889 10.1805 7.88889C9.99352 7.88889 9.83802 7.95278 9.71406 8.08056C9.5901 8.20833 9.52812 8.36667 9.52812 8.55556V16.0889ZM13.1594 16.0889C13.1594 16.2778 13.2226 16.4361 13.3491 16.5639C13.4757 16.6917 13.6324 16.7556 13.8195 16.7556C14.0065 16.7556 14.162 16.6917 14.2859 16.5639C14.4099 16.4361 14.4719 16.2778 14.4719 16.0889V8.55556C14.4719 8.36667 14.4086 8.20833 14.2821 8.08056C14.1556 7.95278 13.9988 7.88889 13.8118 7.88889C13.6248 7.88889 13.4693 7.95278 13.3453 8.08056C13.2214 8.20833 13.1594 8.36667 13.1594 8.55556V16.0889Z" fill="#8D9FB5"/>
</svg>
