<svg width="18" height="18" viewBox="0 0 18 18" fill="none" xmlns="http://www.w3.org/2000/svg">
<g clip-path="url(#clip0_1418_28735)">
<path d="M1.35 17C0.99 17 0.675 16.8594 0.405 16.5781C0.135 16.2969 0 15.9688 0 15.5938V3.40625C0 3.03125 0.135 2.70312 0.405 2.42188C0.675 2.14062 0.99 2 1.35 2H16.65C17.01 2 17.325 2.14062 17.595 2.42188C17.865 2.70312 18 3.03125 18 3.40625V15.5938C18 15.9688 17.865 16.2969 17.595 16.5781C17.325 16.8594 17.01 17 16.65 17H1.35ZM16.65 4.69531L9.36 9.66406C9.3 9.69531 9.24375 9.72266 9.19125 9.74609C9.13875 9.76953 9.075 9.78125 9 9.78125C8.925 9.78125 8.86125 9.76953 8.80875 9.74609C8.75625 9.72266 8.7 9.69531 8.64 9.66406L1.35 4.69531V15.5938H16.65V4.69531ZM9 8.51562L16.56 3.40625H1.4625L9 8.51562ZM1.35 4.85938V3.93788V3.95504V3.40625V3.94531V3.92394V4.85938Z" fill="#BECCDC"/>
</g>
<defs>
<clipPath id="clip0_1418_28735">
<rect width="18" height="18" fill="white"/>
</clipPath>
</defs>
</svg>
