<svg width="50" height="50" viewBox="0 0 50 50" fill="none" xmlns="http://www.w3.org/2000/svg">
<rect x="3" y="30" width="16" height="1" fill="black"/>
<rect x="3" y="32" width="16" height="1" fill="black"/>
<path d="M15.3929 19.25C15.3929 21.7461 13.4079 23.75 11 23.75C8.59211 23.75 6.60714 21.7461 6.60714 19.25C6.60714 16.7539 8.59211 14.75 11 14.75C13.4079 14.75 15.3929 16.7539 15.3929 19.25ZM3.8 34.25C3.12135 34.25 2.75 33.79 2.75 33.425V31.85C2.75 29.7466 4.73576 27.875 7.4 27.875C7.62826 27.875 7.78849 27.929 8.1138 28.0387C8.22285 28.0754 8.35045 28.1184 8.50539 28.1678C9.08238 28.3515 9.83044 28.5312 11 28.5312C12.1387 28.5312 12.8974 28.351 13.4831 28.1695C13.6484 28.1183 13.784 28.0738 13.8993 28.036C14.227 27.9284 14.3899 27.875 14.6 27.875C17.2642 27.875 19.25 29.7466 19.25 31.85V33.425C19.25 33.7901 18.8787 34.25 18.2 34.25H3.8Z" stroke="black" stroke-width="1.5"/>
<path d="M23 36.005V14.9744C23 14.4496 23.1942 13.9894 23.5827 13.5936C23.9712 13.1979 24.433 13 24.9681 13H45.0319C45.555 13 46.0137 13.1979 46.4082 13.5936C46.8027 13.9894 47 14.4496 47 14.9744V31.5588C47 32.0835 46.8027 32.5438 46.4082 32.9395C46.0137 33.3353 45.555 33.5332 45.0319 33.5332H27.8284L24.6742 36.6973C24.3646 37.008 24.0081 37.0795 23.6049 36.9119C23.2016 36.7444 23 36.4421 23 36.005ZM24.5482 34.6125L27.1724 31.98H45.0319C45.1543 31.98 45.2549 31.9405 45.3337 31.8615C45.4124 31.7826 45.4518 31.6816 45.4518 31.5588V14.9744C45.4518 14.8515 45.4124 14.7506 45.3337 14.6716C45.2549 14.5926 45.1543 14.5531 45.0319 14.5531H24.9681C24.8457 14.5531 24.7451 14.5926 24.6663 14.6716C24.5876 14.7506 24.5482 14.8515 24.5482 14.9744V34.6125ZM24.5482 14.9744V14.5531V34.6125V14.9744Z" fill="#405AE3"/>
<path d="M24 36V31H29L24 36Z" fill="#405AE3"/>
<path d="M24 14H46V33.1795H26.75H24V14Z" fill="#405AE3"/>
<path d="M35.0727 20.5609L35.0727 20.5609C35.6405 20.6934 36.1307 20.9664 36.5414 21.3791C36.9515 21.7911 37.2303 22.2815 37.3774 22.8485L37.3784 22.8526L37.3783 22.8527C37.4151 23.0242 37.3779 23.1798 37.2632 23.3072C37.1501 23.4329 36.9986 23.4931 36.8199 23.4931C36.6957 23.4931 36.5813 23.4515 36.4788 23.3732C36.3738 23.2929 36.3035 23.1847 36.2676 23.0533C36.1703 22.7132 35.9983 22.4202 35.7508 22.1728C35.5034 21.9253 35.2104 21.7533 34.8703 21.656L35.0727 20.5609ZM35.0727 20.5609L35.071 20.5606C34.8994 20.5238 34.7439 20.561 34.6164 20.6757C34.4907 20.7889 34.4306 20.9405 34.4306 21.1195C34.4306 21.25 34.4711 21.3663 34.5539 21.4629L35.0727 20.5609ZM38.8926 22.9787L38.8925 22.9788L38.893 22.9817C38.9169 23.1247 38.9806 23.2467 39.0843 23.3438C39.1883 23.4413 39.3114 23.4931 39.45 23.4931C39.613 23.4931 39.7547 23.4381 39.8683 23.327C39.9851 23.2128 40.0319 23.069 40.0075 22.9064C39.8608 21.5894 39.3213 20.4638 38.3906 19.533C37.4598 18.6023 36.3342 18.0629 35.0172 17.9161C34.8558 17.8919 34.7124 17.9363 34.5977 18.0498L34.5977 18.0498C34.4862 18.1602 34.4306 18.2987 34.4306 18.4583C34.4306 18.6054 34.4804 18.7347 34.58 18.8403C34.6772 18.9434 34.7991 19.0068 34.9419 19.0306L34.9419 19.0306L34.9449 19.031C35.9723 19.1707 36.851 19.6063 37.5842 20.3395C38.3173 21.0726 38.7529 21.9513 38.8926 22.9787ZM32.2641 18.0704L32.2641 18.0704C32.1379 17.9583 31.9908 17.9 31.8264 17.9H29.6875C29.4663 17.9 29.2766 17.9748 29.1257 18.1257C28.9748 18.2766 28.9 18.4663 28.9 18.6875C28.9 19.9471 29.2099 21.1972 29.8271 22.4369C30.4431 23.674 31.2439 24.7854 32.2293 25.7707C33.2146 26.7561 34.326 27.5569 35.5631 28.1728C36.8028 28.7901 38.0529 29.1 39.3125 29.1C39.5337 29.1 39.7234 29.0252 39.8743 28.8743C40.0252 28.7234 40.1 28.5337 40.1 28.3125V26.25C40.1 26.0647 40.0423 25.9001 39.9264 25.7611C39.8117 25.6234 39.6639 25.5344 39.4868 25.4954L39.4866 25.4954L37.6697 25.0984C37.6695 25.0983 37.6693 25.0983 37.6691 25.0983C37.518 25.0635 37.3667 25.0725 37.2173 25.1243C37.0683 25.1758 36.9377 25.2643 36.8257 25.3871L35.4285 26.8284C34.5672 26.3509 33.7949 25.7729 33.1114 25.0943C32.4266 24.4144 31.8059 23.6182 31.2496 22.7052L32.7221 21.2179C32.7222 21.2179 32.7222 21.2178 32.7223 21.2177C32.8178 21.1222 32.8802 21.0055 32.9095 20.8705C32.938 20.7397 32.9402 20.5976 32.9184 20.4456L32.9187 20.4455L32.9172 20.4388L32.505 18.515C32.4708 18.334 32.3916 18.1836 32.2641 18.0704ZM31.4701 19.0167L31.7939 20.5651L30.7002 21.6723C30.4758 21.121 30.3082 20.6297 30.1968 20.1979C30.0865 19.7706 30.0273 19.377 30.018 19.0167H31.4701ZM37.544 26.2368L38.9833 26.5303V27.9779C38.5648 27.9523 38.1326 27.8839 37.6868 27.7724C37.2529 27.664 36.8482 27.5273 36.4724 27.3626L37.544 26.2368Z" fill="#E5EDF2" stroke="white" stroke-width="0.2"/>
</svg>
