<svg width="28" height="28" viewBox="0 0 28 28" fill="none" xmlns="http://www.w3.org/2000/svg">
<path d="M5.25 24.5C4.76875 24.5 4.35677 24.3286 4.01406 23.9859C3.67135 23.6432 3.5 23.2313 3.5 22.75V5.25C3.5 4.76875 3.67135 4.35677 4.01406 4.01406C4.35677 3.67135 4.76875 3.5 5.25 3.5H21.75C22.0222 3.5 22.2701 3.55833 22.4937 3.675C22.7174 3.79167 22.8972 3.92778 23.0333 4.08333L21.75 5.36667V5.25H5.25V22.75H22.75V13.7458L24.5 11.9958V22.75C24.5 23.2313 24.3286 23.6432 23.9859 23.9859C23.6432 24.3286 23.2313 24.5 22.75 24.5H5.25ZM13.4458 19.6L6.97083 13.125L8.19583 11.9L13.4458 17.15L24.5875 6.00833L25.8125 7.23333L13.4458 19.6Z" fill="white"/>
</svg>
