<svg width="18" height="18" viewBox="0 0 18 18" fill="none" xmlns="http://www.w3.org/2000/svg">
<path d="M4.71427 13.4286C3.40476 13.4286 2.29167 12.9704 1.37501 12.0541C0.458337 11.1378 0 10.0252 0 8.71623C0 7.40724 0.458337 6.29396 1.37501 5.37638C2.29167 4.45879 3.40476 4 4.71427 4C5.60219 4 6.42526 4.23571 7.1835 4.70714C7.94174 5.17857 8.51646 5.8 8.90766 6.57143H16.4505C16.8766 6.57143 17.2414 6.72316 17.5448 7.0266C17.8483 7.33003 18 7.69479 18 8.1209V9.30766C18 9.73376 17.8483 10.0985 17.5448 10.402C17.2414 10.7054 16.8766 10.8571 16.4505 10.8571H16.2857V11.8791C16.2857 12.3052 16.134 12.67 15.8305 12.9734C15.5271 13.2768 15.1623 13.4286 14.7362 13.4286H13.5495C13.1234 13.4286 12.7586 13.2768 12.4552 12.9734C12.1517 12.67 12 12.3052 12 11.8791V10.8571H8.90766C8.51646 11.6285 7.94174 12.25 7.1835 12.7214C6.42526 13.1928 5.60219 13.4286 4.71427 13.4286ZM4.71427 12.1429C5.65713 12.1429 6.41428 11.8536 6.98571 11.275C7.55714 10.6964 7.9 10.1286 8.01428 9.57142H13.2857V11.8791C13.2857 11.956 13.3105 12.0192 13.3599 12.0687C13.4094 12.1181 13.4726 12.1429 13.5495 12.1429H14.7362C14.8132 12.1429 14.8764 12.1181 14.9258 12.0687C14.9753 12.0192 15 11.956 15 11.8791V9.57142H16.4505C16.5275 9.57142 16.5907 9.54669 16.6401 9.49723C16.6896 9.44778 16.7143 9.38458 16.7143 9.30766V8.1209C16.7143 8.04397 16.6896 7.98077 16.6401 7.93132C16.5907 7.88186 16.5275 7.85713 16.4505 7.85713H8.01428C7.9 7.29999 7.55714 6.73213 6.98571 6.15356C6.41428 5.57498 5.65713 5.2857 4.71427 5.2857C3.77142 5.2857 2.96427 5.62141 2.29284 6.29284C1.62141 6.96427 1.2857 7.77142 1.2857 8.71428C1.2857 9.65713 1.62141 10.4643 2.29284 11.1357C2.96427 11.8071 3.77142 12.1429 4.71427 12.1429ZM4.71427 10.0989C5.09503 10.0989 5.42099 9.96329 5.69215 9.69215C5.96329 9.42099 6.09886 9.09503 6.09886 8.71428C6.09886 8.33352 5.96329 8.00756 5.69215 7.7364C5.42099 7.46526 5.09503 7.32969 4.71427 7.32969C4.33352 7.32969 4.00756 7.46526 3.7364 7.7364C3.46526 8.00756 3.32969 8.33352 3.32969 8.71428C3.32969 9.09503 3.46526 9.42099 3.7364 9.69215C4.00756 9.96329 4.33352 10.0989 4.71427 10.0989Z" fill="#979797"/>
</svg>
