<svg width="18" height="18" viewBox="0 0 18 18" fill="none" xmlns="http://www.w3.org/2000/svg">
<g clip-path="url(#clip0_1418_27852)">
<path d="M4.1103 1.49384C4.04389 1.40841 3.96006 1.33809 3.86438 1.28755C3.7687 1.237 3.66336 1.2074 3.55536 1.20069C3.44736 1.19399 3.33917 1.21034 3.23797 1.24867C3.13678 1.28699 3.0449 1.34641 2.96843 1.42297L1.80518 2.58734C1.2618 3.13184 1.06155 3.90247 1.29893 4.57859C2.28413 7.37713 3.88676 9.91795 5.98793 12.0126C8.08259 14.1137 10.6234 15.7163 13.4219 16.7016C14.0981 16.939 14.8687 16.7387 15.4132 16.1953L16.5764 15.0321C16.653 14.9556 16.7124 14.8637 16.7507 14.7625C16.7891 14.6614 16.8054 14.5532 16.7987 14.4452C16.792 14.3372 16.7624 14.2318 16.7118 14.1361C16.6613 14.0405 16.591 13.9566 16.5056 13.8902L13.9102 11.872C13.8189 11.8012 13.7128 11.752 13.5997 11.7283C13.4867 11.7045 13.3697 11.7067 13.2577 11.7347L10.7939 12.3501C10.4651 12.4323 10.1205 12.4279 9.79385 12.3374C9.46718 12.2469 9.1695 12.0734 8.9298 11.8337L6.1668 9.06959C5.92692 8.83001 5.75317 8.53238 5.66248 8.2057C5.57179 7.87902 5.56725 7.53442 5.6493 7.20547L6.2658 4.74172C6.29382 4.62966 6.29603 4.51271 6.27225 4.39968C6.24848 4.28664 6.19934 4.18049 6.12855 4.08922L4.1103 1.49384ZM2.11905 0.574718C2.31592 0.377787 2.55243 0.22499 2.81288 0.126475C3.07333 0.0279597 3.35176 -0.0140201 3.62968 0.00332326C3.9076 0.0206666 4.17865 0.0969361 4.42483 0.227067C4.67101 0.357199 4.88669 0.538214 5.05755 0.758094L7.0758 3.35234C7.44593 3.82822 7.57643 4.44809 7.43018 5.03309L6.8148 7.49684C6.78299 7.62445 6.78471 7.75812 6.81979 7.88487C6.85488 8.01161 6.92214 8.12714 7.01505 8.22022L9.77918 10.9843C9.87237 11.0774 9.98808 11.1448 10.115 11.1799C10.242 11.215 10.3759 11.2166 10.5037 11.1846L12.9663 10.5692C13.255 10.497 13.5563 10.4914 13.8475 10.5528C14.1387 10.6142 14.4121 10.741 14.6471 10.9236L17.2413 12.9418C18.1739 13.6675 18.2594 15.0456 17.4247 15.8792L16.2614 17.0425C15.4289 17.875 14.1847 18.2406 13.0248 17.8322C10.0561 16.7877 7.36073 15.0882 5.13855 12.8597C2.91025 10.6379 1.21074 7.94286 0.166053 4.97459C-0.241197 3.81584 0.124428 2.57047 0.956928 1.73797L2.12018 0.574718H2.11905Z" fill="#BECCDC"/>
<rect x="2" y="16.7998" width="12" height="1.3" fill="#BECCDC"/>
</g>
<defs>
<clipPath id="clip0_1418_27852">
<rect width="18" height="18" fill="white"/>
</clipPath>
</defs>
</svg>
