<svg width="24" height="24" viewBox="0 0 24 24" fill="none" xmlns="http://www.w3.org/2000/svg">
<path d="M5.15625 22C4.65625 22 4.21875 21.8333 3.84375 21.5C3.46875 21.1667 3.28125 20.7778 3.28125 20.3333V4.5H2.9375C2.67188 4.5 2.44922 4.41968 2.26953 4.25903C2.08984 4.09836 2 3.89929 2 3.66181C2 3.42431 2.08984 3.22685 2.26953 3.06944C2.44922 2.91204 2.67188 2.83333 2.9375 2.83333H7.875C7.875 2.59259 7.96484 2.39352 8.14453 2.23611C8.32422 2.0787 8.54688 2 8.8125 2H15.1875C15.4531 2 15.6758 2.07986 15.8555 2.23958C16.0352 2.39931 16.125 2.59722 16.125 2.83333H21.0625C21.3281 2.83333 21.5508 2.91366 21.7305 3.07431C21.9102 3.23497 22 3.43405 22 3.67153C22 3.90903 21.9102 4.10648 21.7305 4.26389C21.5508 4.4213 21.3281 4.5 21.0625 4.5H20.7188V20.3333C20.7188 20.7778 20.5312 21.1667 20.1562 21.5C19.7812 21.8333 19.3438 22 18.8438 22H5.15625ZM5.15625 4.5V20.3333H18.8438V4.5H5.15625ZM8.46875 17.1111C8.46875 17.3472 8.55911 17.5451 8.73984 17.7049C8.92059 17.8646 9.14455 17.9444 9.41172 17.9444C9.67891 17.9444 9.90104 17.8646 10.0781 17.7049C10.2552 17.5451 10.3438 17.3472 10.3438 17.1111V7.69444C10.3438 7.45833 10.2534 7.26042 10.0727 7.1007C9.89191 6.94097 9.66795 6.86111 9.40078 6.86111C9.13359 6.86111 8.91146 6.94097 8.73438 7.1007C8.55729 7.26042 8.46875 7.45833 8.46875 7.69444V17.1111ZM13.6562 17.1111C13.6562 17.3472 13.7466 17.5451 13.9273 17.7049C14.1081 17.8646 14.3321 17.9444 14.5992 17.9444C14.8664 17.9444 15.0885 17.8646 15.2656 17.7049C15.4427 17.5451 15.5312 17.3472 15.5312 17.1111V7.69444C15.5312 7.45833 15.4409 7.26042 15.2602 7.1007C15.0794 6.94097 14.8554 6.86111 14.5883 6.86111C14.3211 6.86111 14.099 6.94097 13.9219 7.1007C13.7448 7.26042 13.6562 7.45833 13.6562 7.69444V17.1111Z" fill="black"/>
</svg>
