<svg width="14" height="14" viewBox="0 0 14 14" fill="none" xmlns="http://www.w3.org/2000/svg">
<path d="M7 7.75097L3.24521 11.5058C3.13793 11.613 3.01277 11.6667 2.86973 11.6667C2.72669 11.6667 2.60153 11.613 2.49425 11.5058C2.38697 11.3985 2.33333 11.2733 2.33333 11.1303C2.33333 10.9872 2.38697 10.8621 2.49425 10.7548L6.24904 7.00001L2.49425 3.24522C2.38697 3.13794 2.33333 3.01278 2.33333 2.86974C2.33333 2.7267 2.38697 2.60154 2.49425 2.49426C2.60153 2.38698 2.72669 2.33334 2.86973 2.33334C3.01277 2.33334 3.13793 2.38698 3.24521 2.49426L7 6.24905L10.7548 2.49426C10.8621 2.38698 10.9872 2.33334 11.1303 2.33334C11.2733 2.33334 11.3985 2.38698 11.5057 2.49426C11.613 2.60154 11.6667 2.7267 11.6667 2.86974C11.6667 3.01278 11.613 3.13794 11.5057 3.24522L7.75095 7.00001L11.5057 10.7548C11.613 10.8621 11.6667 10.9872 11.6667 11.1303C11.6667 11.2733 11.613 11.3985 11.5057 11.5058C11.3985 11.613 11.2733 11.6667 11.1303 11.6667C10.9872 11.6667 10.8621 11.613 10.7548 11.5058L7 7.75097Z" fill="#979797"/>
</svg>
