<svg width="48" height="49" viewBox="0 0 48 49" fill="none" xmlns="http://www.w3.org/2000/svg">
<path d="M6.04929 37.9399C5.29637 37.9399 4.64659 37.6666 4.09997 37.12C3.55334 36.5734 3.28003 35.9236 3.28003 35.1707V11.9093C3.28003 11.1564 3.55334 10.5066 4.09997 9.95995C4.64659 9.41333 5.29637 9.14001 6.04929 9.14001H36.9907C37.7436 9.14001 38.3934 9.41333 38.94 9.95995C39.4866 10.5066 39.7599 11.1564 39.7599 11.9093V35.1707C39.7599 35.9236 39.4866 36.5734 38.94 37.12C38.3934 37.6666 37.7436 37.9399 36.9907 37.9399H6.04929ZM37.5815 13.2015L22.288 23.3221C22.16 23.3861 22.0369 23.4421 21.9188 23.4901C21.8006 23.5381 21.6677 23.5621 21.52 23.5621C21.3723 23.5621 21.2394 23.5381 21.1212 23.4901C21.0031 23.4421 20.8861 23.3861 20.7705 23.3221L5.45846 13.2015V35.1707C5.45846 35.343 5.51385 35.4845 5.62464 35.5953C5.73542 35.7061 5.87697 35.7615 6.04929 35.7615H36.9907C37.163 35.7615 37.3045 35.7061 37.4153 35.5953C37.5261 35.4845 37.5815 35.343 37.5815 35.1707V13.2015ZM21.52 21.5424L37.1495 11.3184H5.93846L21.52 21.5424ZM5.45846 13.5559V12.0481V12.096V11.3184V12.0717V12.0094V13.5559Z" fill="black"/>
<circle cx="36.5" cy="35" r="10" fill="#222222"/>
<path d="M32.8535 31.6465L39.9246 38.7176" stroke="white" stroke-width="2" stroke-linecap="round"/>
<path d="M40.0459 31.6465L32.9748 38.7176" stroke="white" stroke-width="2" stroke-linecap="round"/>
</svg>
