<svg width="135" height="20" viewBox="0 0 135 20" fill="none" xmlns="http://www.w3.org/2000/svg">
<path d="M75.1472 15.735L77.8267 6.31489H79.1248L78.3738 9.97723L75.4903 19.8145H74.2015L75.1472 15.735ZM72.375 6.31489L74.5075 15.5495L75.1472 19.8145H73.8677L70.5948 6.31489H72.375ZM82.5924 15.5403L84.6786 6.31489H86.468L83.2044 19.8145H81.9249L82.5924 15.5403ZM79.3195 6.31489L81.9249 15.735L82.8706 19.8145H81.5818L78.8003 9.97723L78.04 6.31489H79.3195Z" fill="black"/>
<path d="M98.8458 12.6382V13.4912C98.8458 14.5049 98.7191 15.4136 98.4656 16.2171C98.2122 17.0207 97.8475 17.7037 97.3716 18.2662C96.8956 18.8287 96.3239 19.2582 95.6563 19.5549C94.9949 19.8516 94.2532 20 93.4311 20C92.6337 20 91.9013 19.8516 91.2337 19.5549C90.5723 19.2582 89.9975 18.8287 89.5091 18.2662C89.027 17.7037 88.6531 17.0207 88.3873 16.2171C88.1215 15.4136 87.9886 14.5049 87.9886 13.4912V12.6382C87.9886 11.6245 88.1184 10.719 88.378 9.9216C88.6438 9.11805 89.0177 8.43503 89.4999 7.87254C89.982 7.30388 90.5538 6.87119 91.2151 6.5745C91.8827 6.2778 92.6152 6.12946 93.4125 6.12946C94.2346 6.12946 94.9764 6.2778 95.6378 6.5745C96.3053 6.87119 96.8771 7.30388 97.353 7.87254C97.8352 8.43503 98.2029 9.11805 98.4564 9.9216C98.716 10.719 98.8458 11.6245 98.8458 12.6382ZM97.0749 13.4912V12.6197C97.0749 11.8161 96.9914 11.1053 96.8245 10.4872C96.6638 9.86906 96.4259 9.34984 96.1106 8.92952C95.7954 8.5092 95.4091 8.19087 94.9517 7.97453C94.5004 7.75819 93.9874 7.65002 93.4125 7.65002C92.8562 7.65002 92.3525 7.75819 91.9013 7.97453C91.4562 8.19087 91.073 8.5092 90.7516 8.92952C90.4363 9.34984 90.1922 9.86906 90.0191 10.4872C89.846 11.1053 89.7595 11.8161 89.7595 12.6197V13.4912C89.7595 14.301 89.846 15.018 90.0191 15.6423C90.1922 16.2604 90.4394 16.7827 90.7608 17.2092C91.0884 17.6295 91.4748 17.9478 91.9198 18.1642C92.371 18.3805 92.8748 18.4887 93.4311 18.4887C94.0121 18.4887 94.5282 18.3805 94.9795 18.1642C95.4307 17.9478 95.8108 17.6295 96.1199 17.2092C96.4351 16.7827 96.6731 16.2604 96.8338 15.6423C96.9945 15.018 97.0749 14.301 97.0749 13.4912Z" fill="black"/>
<path d="M101.525 6.31489H105.994C107.008 6.31489 107.864 6.46942 108.563 6.77848C109.267 7.08754 109.802 7.54494 110.167 8.1507C110.537 8.75027 110.723 9.48892 110.723 10.3666C110.723 10.9848 110.596 11.5503 110.343 12.0634C110.096 12.5702 109.737 13.0029 109.267 13.3614C108.804 13.7137 108.247 13.9764 107.598 14.1495L107.098 14.3442H102.898L102.879 12.8886H106.05C106.693 12.8886 107.227 12.7773 107.654 12.5548C108.08 12.3261 108.402 12.0201 108.618 11.6369C108.835 11.2536 108.943 10.8302 108.943 10.3666C108.943 9.84742 108.841 9.39311 108.637 9.0037C108.433 8.61428 108.111 8.3145 107.672 8.10434C107.24 7.888 106.68 7.77983 105.994 7.77983H103.315V19.8145H101.525V6.31489ZM109.416 19.8145L106.133 13.6952L107.997 13.6859L111.326 19.7033V19.8145H109.416Z" fill="black"/>
<path d="M115.016 6.31489V19.8145H113.226V6.31489H115.016ZM123.166 6.31489L117.556 12.6104L114.404 15.8833L114.107 13.9733L116.481 11.3587L121.015 6.31489H123.166ZM121.441 19.8145L116.444 13.2316L117.51 11.813L123.574 19.8145H121.441Z" fill="black"/>
<path d="M132.345 16.4025C132.345 16.0873 132.295 15.8092 132.196 15.5681C132.104 15.3208 131.937 15.0983 131.696 14.9005C131.461 14.7027 131.133 14.5142 130.713 14.3349C130.299 14.1557 129.773 13.9733 129.137 13.7879C128.469 13.5901 127.866 13.3707 127.329 13.1296C126.791 12.8824 126.33 12.6011 125.947 12.2859C125.564 11.9707 125.27 11.6091 125.066 11.2011C124.862 10.7931 124.76 10.3265 124.76 9.80107C124.76 9.27567 124.868 8.79045 125.085 8.3454C125.301 7.90036 125.61 7.51404 126.012 7.18643C126.42 6.85265 126.905 6.59304 127.468 6.40761C128.03 6.22217 128.658 6.12946 129.35 6.12946C130.364 6.12946 131.223 6.32416 131.927 6.71358C132.638 7.09681 133.179 7.60057 133.55 8.22487C133.921 8.84299 134.106 9.50437 134.106 10.209H132.326C132.326 9.70217 132.218 9.25403 132.002 8.86462C131.785 8.46902 131.458 8.15997 131.019 7.93745C130.58 7.70874 130.024 7.59439 129.35 7.59439C128.713 7.59439 128.188 7.6902 127.774 7.88181C127.359 8.07343 127.05 8.33304 126.846 8.66064C126.649 8.98824 126.55 9.3622 126.55 9.78252C126.55 10.0669 126.608 10.3265 126.726 10.5613C126.85 10.7901 127.038 11.0033 127.291 11.2011C127.551 11.3989 127.879 11.5812 128.274 11.7481C128.676 11.915 129.155 12.0757 129.711 12.2303C130.478 12.4466 131.139 12.6877 131.696 12.9535C132.252 13.2192 132.709 13.519 133.068 13.8528C133.432 14.1804 133.701 14.5544 133.874 14.9747C134.054 15.3888 134.143 15.8586 134.143 16.384C134.143 16.9341 134.032 17.4317 133.81 17.8768C133.587 18.3218 133.269 18.7019 132.855 19.0172C132.44 19.3324 131.943 19.5766 131.362 19.7496C130.787 19.9165 130.144 20 129.433 20C128.809 20 128.194 19.9134 127.588 19.7404C126.989 19.5673 126.442 19.3077 125.947 18.9615C125.459 18.6154 125.066 18.1889 124.77 17.682C124.479 17.169 124.334 16.5756 124.334 15.9019H126.114C126.114 16.3655 126.204 16.7641 126.383 17.0979C126.562 17.4255 126.806 17.6975 127.115 17.9138C127.431 18.1302 127.786 18.2909 128.182 18.396C128.583 18.4949 129.001 18.5443 129.433 18.5443C130.058 18.5443 130.586 18.4578 131.019 18.2847C131.451 18.1116 131.779 17.8644 132.002 17.543C132.23 17.2215 132.345 16.8414 132.345 16.4025Z" fill="black"/>
<path d="M27.7629 16.1856C27.7629 15.7133 27.5969 15.3453 27.2593 15.0816C26.9216 14.818 26.3294 14.5433 25.4826 14.2632C24.6357 13.9831 23.9439 13.7085 23.407 13.4448C21.658 12.5935 20.7835 11.4236 20.7835 9.92962C20.7835 9.18813 20.9994 8.53452 21.4366 7.96329C21.8739 7.39756 22.4882 6.95267 23.2852 6.63959C24.0823 6.32652 24.9789 6.16724 25.9752 6.16724C26.9714 6.16724 27.8183 6.33751 28.5821 6.68353C29.3514 7.02956 29.9492 7.5184 30.3754 8.15004C30.8016 8.78168 31.0174 9.51219 31.0174 10.3251H27.774C27.774 9.78132 27.608 9.3584 27.2703 9.05631C26.9327 8.75422 26.4788 8.60592 25.9032 8.60592C25.3276 8.60592 24.8627 8.73225 24.525 8.98491C24.1874 9.23756 24.0214 9.56162 24.0214 9.95708C24.0214 10.3031 24.204 10.6107 24.5749 10.8908C24.9457 11.1709 25.5988 11.4565 26.5287 11.7531C27.464 12.0497 28.2279 12.3683 28.8256 12.7143C30.2813 13.5492 31.0119 14.6971 31.0119 16.1636C31.0119 17.3336 30.5691 18.2563 29.678 18.9209C28.7869 19.591 27.5692 19.926 26.0139 19.926C24.918 19.926 23.9273 19.7338 23.0417 19.3438C22.1561 18.9538 21.4864 18.4211 21.0381 17.7455C20.5898 17.0699 20.3684 16.29 20.3684 15.4057H23.6339C23.6339 16.1252 23.8221 16.6525 24.193 16.993C24.5693 17.3336 25.1726 17.5038 26.0139 17.5038C26.5508 17.5038 26.977 17.3885 27.2869 17.1578C27.5969 16.9271 27.7574 16.603 27.7574 16.1856H27.7629Z" fill="black"/>
<path d="M43.327 8.84139H39.2755V19.7441H36.021V8.84139H32.047V6.34778H43.327V8.84139V8.84139Z" fill="black"/>
<path d="M49.3541 15.004H47.5941V19.7386H44.3396V6.34778H49.653C51.2526 6.34778 52.5035 6.6993 53.4056 7.40234C54.3078 8.10539 54.7617 9.10503 54.7617 10.3903C54.7617 11.324 54.5735 12.093 54.1916 12.7081C53.8097 13.3233 53.2175 13.8176 52.4094 14.1966L55.2266 19.6067V19.7441H51.7397L49.3597 15.0095L49.3541 15.004ZM47.5941 12.5214H49.653C50.2729 12.5214 50.7379 12.3621 51.0478 12.038C51.3578 11.714 51.5183 11.2636 51.5183 10.6869C51.5183 10.1102 51.3633 9.65428 51.0478 9.32473C50.7323 8.99518 50.2674 8.8304 49.6586 8.8304H47.5996V12.5214H47.5941Z" fill="black"/>
<path d="M64.7024 17.2395H60.2413L59.4609 19.7441H55.985L60.9331 6.34778H63.9939L68.9808 19.7441H65.4883L64.7024 17.2395V17.2395ZM61.0217 14.7459H63.922L62.4663 10.0992L61.0217 14.7459Z" fill="black"/>
<path d="M15.4533 6.36035H12.0217V12.111C12.0217 14.4618 10.1011 16.3732 7.72664 16.3732C5.35219 16.3732 3.4316 14.4673 3.4316 12.111V2.08167L0 0V12.1055C0 13.6819 0.481531 15.1484 1.30069 16.3677C1.86524 17.2026 2.59031 17.9221 3.4316 18.4824C4.66034 19.3008 6.13814 19.7731 7.72664 19.7731C9.31514 19.7731 10.7929 19.2953 12.0217 18.4824C12.863 17.9221 13.588 17.2026 14.1526 16.3677C14.9773 15.1484 15.4533 13.6819 15.4533 12.1055V6.36035Z" fill="black"/>
<path d="M17.1634 19.7734C18.111 19.7734 18.8792 19.011 18.8792 18.0707C18.8792 17.1303 18.111 16.368 17.1634 16.368C16.2158 16.368 15.4476 17.1303 15.4476 18.0707C15.4476 19.011 16.2158 19.7734 17.1634 19.7734Z" fill="black"/>
</svg>
